<svg width="348" height="148" viewBox="0 0 348 148" fill="none" xmlns="http://www.w3.org/2000/svg">
<rect y="0.328125" width="348" height="147" rx="15" fill="#FFC173"/>
<mask id="mask0_3_1395" style="mask-type:alpha" maskUnits="userSpaceOnUse" x="-1" y="0" width="350" height="148">
<rect x="-0.115234" y="0.0605469" width="348.23" height="147.54" rx="15" fill="white"/>
</mask>
<g mask="url(#mask0_3_1395)">
<path d="M45 73.6039L45 69.9039L50.65 69.9039C51.6167 69.9039 52.4333 69.7539 53.1 69.4539C53.8 69.1539 54.3333 68.7372 54.7 68.2039C55.0667 67.6372 55.25 66.9539 55.25 66.1539C55.25 64.9539 54.85 64.0539 54.05 63.4539C53.25 62.8539 52.1167 62.5539 50.65 62.5539L47.15 62.5539L47.15 84.4539L51.45 84.4539C52.55 84.4539 53.5333 84.3206 54.4 84.0539C55.2667 83.7539 55.95 83.2872 56.45 82.6539C56.9833 81.9872 57.25 81.0872 57.25 79.9539C57.25 79.2206 57.1 78.5872 56.8 78.0539C56.5 77.5206 56.0833 77.0872 55.55 76.7539C55.0167 76.4206 54.4 76.1872 53.7 76.0539C53.0333 75.8872 52.2833 75.8039 51.45 75.8039L45 75.8039L45 71.2039L52.4 71.2039C54.1 71.2039 55.75 71.3872 57.35 71.7539C58.95 72.1206 60.4 72.7206 61.7 73.5539C63 74.3539 64.0333 75.3872 64.8 76.6539C65.6 77.8872 66 79.3872 66 81.1539C66 83.4872 65.4333 85.3706 64.3 86.8039C63.2 88.2372 61.6333 89.3039 59.6 90.0039C57.5667 90.6706 55.1667 91.0039 52.4 91.0039L38.7 91.0039L38.7 56.0039L51.55 56.0039C53.9833 56.0039 56.1167 56.3372 57.95 57.0039C59.8167 57.6372 61.2833 58.6206 62.35 59.9539C63.45 61.2539 64 62.9039 64 64.9039C64 66.7372 63.45 68.3039 62.35 69.6039C61.2833 70.9039 59.8167 71.9039 57.95 72.6039C56.1167 73.2706 53.9833 73.6039 51.55 73.6039L45 73.6039ZM77.0031 83.8039C77.0031 84.4039 77.1531 84.9206 77.4531 85.3539C77.7531 85.7539 78.1531 86.0706 78.6531 86.3039C79.1531 86.5039 79.7031 86.6039 80.3031 86.6039C81.1698 86.6039 81.9698 86.4206 82.7031 86.0539C83.4365 85.6872 84.0365 85.1372 84.5031 84.4039C84.9698 83.6706 85.2031 82.7706 85.2031 81.7039L86.0031 84.7039C86.0031 86.1706 85.6031 87.4206 84.8031 88.4539C84.0031 89.4539 82.9698 90.2206 81.7031 90.7539C80.4365 91.2539 79.0698 91.5039 77.6031 91.5039C76.1365 91.5039 74.7698 91.2372 73.5031 90.7039C72.2698 90.1372 71.2698 89.3039 70.5031 88.2039C69.7698 87.1039 69.4031 85.7706 69.4031 84.2039C69.4031 82.0039 70.1865 80.2706 71.7531 79.0039C73.3198 77.7039 75.5365 77.0539 78.4031 77.0539C79.8031 77.0539 81.0531 77.1872 82.1531 77.4539C83.2865 77.7206 84.2531 78.0539 85.0531 78.4539C85.8531 78.8539 86.4531 79.2706 86.8531 79.7039L86.8531 83.0539C86.0531 82.4539 85.1198 82.0039 84.0531 81.7039C83.0198 81.3706 81.9198 81.2039 80.7531 81.2039C79.8531 81.2039 79.1365 81.3039 78.6031 81.5039C78.0698 81.7039 77.6698 82.0039 77.4031 82.4039C77.1365 82.7706 77.0031 83.2372 77.0031 83.8039ZM73.6531 75.0539L71.1031 70.0039C72.4031 69.3706 73.9698 68.7706 75.8031 68.2039C77.6365 67.6372 79.6365 67.3539 81.8031 67.3539C83.8365 67.3539 85.6531 67.6539 87.2531 68.2539C88.8531 68.8206 90.1198 69.6539 91.0531 70.7539C91.9865 71.8539 92.4531 73.2039 92.4531 74.8039L92.4531 91.0039L85.2031 91.0039L85.2031 76.5039C85.2031 75.9372 85.1031 75.4539 84.9031 75.0539C84.7365 74.6206 84.4698 74.2539 84.1031 73.9539C83.7365 73.6539 83.2698 73.4372 82.7031 73.3039C82.1698 73.1706 81.5531 73.1039 80.8531 73.1039C79.8198 73.1039 78.8031 73.2206 77.8031 73.4539C76.8365 73.6872 75.9865 73.9706 75.2531 74.3039C74.5198 74.6039 73.9865 74.8539 73.6531 75.0539ZM99.3563 82.6539C100.523 83.6206 101.573 84.3872 102.506 84.9539C103.473 85.4872 104.323 85.8706 105.056 86.1039C105.79 86.3039 106.423 86.4039 106.956 86.4039C107.723 86.4039 108.29 86.2372 108.656 85.9039C109.023 85.5706 109.206 85.1372 109.206 84.6039C109.206 84.1039 109.056 83.6872 108.756 83.3539C108.456 82.9872 107.94 82.6372 107.206 82.3039C106.506 81.9706 105.54 81.6206 104.306 81.2539C103.206 80.8539 102.156 80.3872 101.156 79.8539C100.19 79.2872 99.3896 78.5372 98.7563 77.6039C98.1229 76.6706 97.8063 75.4706 97.8063 74.0039C97.8063 72.6039 98.1729 71.4206 98.9063 70.4539C99.6729 69.4872 100.69 68.7539 101.956 68.2539C103.256 67.7539 104.74 67.5039 106.406 67.5039C107.74 67.5039 108.973 67.6539 110.106 67.9539C111.273 68.2539 112.356 68.6539 113.356 69.1539C114.39 69.6539 115.356 70.2372 116.256 70.9039L113.556 75.8039C112.59 74.9039 111.49 74.1706 110.256 73.6039C109.023 73.0039 107.89 72.7039 106.856 72.7039C106.156 72.7039 105.623 72.8372 105.256 73.1039C104.923 73.3706 104.756 73.7206 104.756 74.1539C104.756 74.6539 104.956 75.0706 105.356 75.4039C105.79 75.7372 106.39 76.0539 107.156 76.3539C107.956 76.6206 108.923 76.9706 110.056 77.4039C111.256 77.8372 112.356 78.3372 113.356 78.9039C114.39 79.4706 115.206 80.1872 115.806 81.0539C116.44 81.9206 116.756 83.0706 116.756 84.5039C116.756 86.9706 115.99 88.8372 114.456 90.1039C112.956 91.3372 110.84 91.9539 108.106 91.9539C106.44 91.9539 104.89 91.7539 103.456 91.3539C102.056 90.9872 100.756 90.4872 99.5563 89.8539C98.3563 89.1872 97.2396 88.4539 96.2063 87.6539L99.3563 82.6539ZM120.459 59.3539C120.459 58.1539 120.892 57.1872 121.759 56.4539C122.626 55.6872 123.659 55.3039 124.859 55.3039C126.092 55.3039 127.126 55.6872 127.959 56.4539C128.826 57.1872 129.259 58.1539 129.259 59.3539C129.259 60.5539 128.826 61.5372 127.959 62.3039C127.126 63.0706 126.092 63.4539 124.859 63.4539C123.659 63.4539 122.626 63.0706 121.759 62.3039C120.892 61.5372 120.459 60.5539 120.459 59.3539ZM121.209 68.0039L128.509 68.0039L128.509 91.0039L121.209 91.0039L121.209 68.0039ZM141.077 79.5039C141.077 80.7372 141.344 81.8039 141.877 82.7039C142.411 83.5706 143.144 84.2539 144.077 84.7539C145.044 85.2539 146.077 85.5039 147.177 85.5039C148.111 85.5039 148.994 85.3706 149.827 85.1039C150.694 84.8039 151.477 84.4039 152.177 83.9039C152.911 83.4039 153.511 82.7872 153.977 82.0539L153.977 89.4039C153.177 90.0372 152.177 90.5539 150.977 90.9539C149.777 91.3206 148.311 91.5039 146.577 91.5039C144.044 91.5039 141.761 91.0039 139.727 90.0039C137.727 89.0039 136.144 87.6039 134.977 85.8039C133.844 84.0039 133.277 81.9039 133.277 79.5039C133.277 77.0706 133.844 74.9706 134.977 73.2039C136.144 71.4039 137.727 70.0039 139.727 69.0039C141.761 68.0039 144.044 67.5039 146.577 67.5039C148.311 67.5039 149.777 67.7039 150.977 68.1039C152.177 68.4706 153.177 68.9372 153.977 69.5039L153.977 76.9039C153.511 76.1706 152.894 75.5539 152.127 75.0539C151.394 74.5539 150.594 74.1706 149.727 73.9039C148.861 73.6372 148.011 73.5039 147.177 73.5039C146.077 73.5039 145.044 73.7706 144.077 74.3039C143.144 74.8372 142.411 75.5539 141.877 76.4539C141.344 77.3539 141.077 78.3706 141.077 79.5039Z" fill="#3D3269"/>
<path d="M295.764 102.002C294.838 101.989 293.949 101.629 293.274 100.992L268.803 76.4035C268.246 75.721 267.961 74.8545 268.004 73.9727C268.047 73.0908 268.415 72.2566 269.036 71.6323C269.658 71.0079 270.488 70.6382 271.365 70.5948C272.243 70.5515 273.105 70.8378 273.784 71.3979L295.764 93.5277L342.215 46.8093C342.894 46.2492 343.756 45.9629 344.634 46.0062C345.511 46.0495 346.341 46.4193 346.963 47.0437C347.584 47.668 347.952 48.5022 347.995 49.3841C348.038 50.2659 347.753 51.1324 347.196 51.8149L298.255 100.992C297.579 101.629 296.691 101.989 295.764 102.002Z" fill="#EEAA55"/>
</g>
</svg>
