<svg width="164" height="210" viewBox="0 0 164 210" fill="none" xmlns="http://www.w3.org/2000/svg">
<path d="M14.9275 170.053C10.6064 167.536 7.94873 162.912 7.94873 157.911V14.0517C7.94873 6.29117 14.2399 0 22.0005 0H82.4229V209.371L14.9275 170.053Z" fill="white"/>
<path d="M148.614 170.071C152.878 167.54 155.492 162.948 155.492 157.989V14.0517C155.492 6.29117 149.201 0 141.44 0H82.4229V209.371L148.614 170.071Z" fill="white"/>
<path d="M62.7495 0V31.1924L82.4218 39.3448L102.094 31.1924V0H62.7495Z" fill="#FFC164"/>
<path d="M62.2859 50.7355H66.1659C67.8488 50.7355 69.1183 50.9793 69.9746 51.4669C70.8309 51.9545 71.259 52.7959 71.259 53.9911C71.259 54.4906 71.1698 54.9426 70.9914 55.3469C70.819 55.7453 70.5662 56.0753 70.2332 56.337C69.9003 56.5927 69.49 56.7651 69.0023 56.8543V56.9435C69.5078 57.0327 69.9567 57.1903 70.3492 57.4162C70.7476 57.6422 71.0598 57.9663 71.2858 58.3885C71.5177 58.8107 71.6336 59.3577 71.6336 60.0297C71.6336 60.8265 71.4433 61.5044 71.0628 62.0633C70.6881 62.6223 70.15 63.0474 69.4483 63.3388C68.7526 63.6302 67.9261 63.7759 66.9687 63.7759H62.2859V50.7355ZM64.4266 56.114H66.4781C67.4474 56.114 68.1193 55.9564 68.4939 55.6412C68.8686 55.3261 69.0559 54.8652 69.0559 54.2587C69.0559 53.6403 68.8329 53.1943 68.3869 52.9208C67.9469 52.6473 67.2452 52.5105 66.2819 52.5105H64.4266V56.114ZM64.4266 57.8444V61.983H66.6833C67.6823 61.983 68.3839 61.7898 68.7883 61.4033C69.1926 61.0168 69.3948 60.4935 69.3948 59.8334C69.3948 59.4291 69.3026 59.0782 69.1183 58.7809C68.9399 58.4836 68.6456 58.2547 68.2353 58.0941C67.825 57.9276 67.272 57.8444 66.5762 57.8444H64.4266ZM78.0468 53.7146C78.9268 53.7146 79.682 53.896 80.3123 54.2587C80.9427 54.6214 81.4273 55.1358 81.7662 55.8018C82.1052 56.4678 82.2746 57.2646 82.2746 58.1922V59.3161H75.6831C75.7069 60.2735 75.9626 61.0108 76.4502 61.5282C76.9437 62.0455 77.6335 62.3042 78.5195 62.3042C79.1498 62.3042 79.7147 62.2447 80.2142 62.1258C80.7197 62.0009 81.24 61.8195 81.7751 61.5817V63.2853C81.2816 63.5172 80.7791 63.6867 80.2677 63.7937C79.7564 63.9008 79.1439 63.9543 78.4303 63.9543C77.4611 63.9543 76.6078 63.767 75.8704 63.3923C75.139 63.0118 74.5652 62.4469 74.1489 61.6976C73.7386 60.9484 73.5335 60.0178 73.5335 58.9058C73.5335 57.7998 73.7208 56.8603 74.0954 56.0872C74.47 55.3142 74.9963 54.7255 75.6742 54.3212C76.3521 53.9168 77.1429 53.7146 78.0468 53.7146ZM78.0468 55.2934C77.3867 55.2934 76.8516 55.5075 76.4413 55.9356C76.0369 56.3637 75.799 56.9911 75.7277 57.8176H80.2231C80.2172 57.3241 80.134 56.887 79.9734 56.5064C79.8188 56.1259 79.5809 55.8286 79.2598 55.6145C78.9447 55.4004 78.5403 55.2934 78.0468 55.2934ZM91.2745 60.9573C91.2745 61.6055 91.1169 62.1525 90.8017 62.5985C90.4866 63.0445 90.0257 63.3834 89.4192 63.6153C88.8186 63.8413 88.0813 63.9543 87.2072 63.9543C86.5174 63.9543 85.9227 63.9037 85.4232 63.8026C84.9297 63.7075 84.4629 63.5588 84.0229 63.3567V61.546C84.4926 61.766 85.0189 61.9563 85.6016 62.1168C86.1903 62.2774 86.7463 62.3577 87.2696 62.3577C87.9594 62.3577 88.4559 62.2506 88.7592 62.0366C89.0624 61.8166 89.2141 61.5252 89.2141 61.1625C89.2141 60.9484 89.1516 60.7581 89.0267 60.5916C88.9078 60.4192 88.6819 60.2437 88.3489 60.0653C88.0218 59.881 87.5402 59.661 86.9039 59.4053C86.2795 59.1556 85.7533 58.9058 85.3251 58.6561C84.897 58.4063 84.5729 58.106 84.3529 57.7552C84.1329 57.3984 84.0229 56.9435 84.0229 56.3905C84.0229 55.5164 84.3678 54.8534 85.0575 54.4014C85.7533 53.9436 86.672 53.7146 87.8137 53.7146C88.4202 53.7146 88.9911 53.7771 89.5262 53.9019C90.0674 54.0209 90.5966 54.1963 91.1139 54.4282L90.4539 56.0069C90.0079 55.8107 89.5589 55.6502 89.107 55.5253C88.661 55.3945 88.2061 55.3291 87.7423 55.3291C87.2012 55.3291 86.7879 55.4123 86.5025 55.5788C86.223 55.7453 86.0833 55.9832 86.0833 56.2924C86.0833 56.5243 86.1517 56.7205 86.2884 56.8811C86.4252 57.0416 86.6601 57.2022 86.9931 57.3627C87.332 57.5233 87.8018 57.7225 88.4024 57.9603C88.9911 58.1863 89.4995 58.4241 89.9276 58.6739C90.3617 58.9177 90.6947 59.218 90.9266 59.5748C91.1585 59.9316 91.2745 60.3924 91.2745 60.9573ZM97.2149 62.2596C97.4884 62.2596 97.759 62.2358 98.0266 62.1882C98.2942 62.1347 98.538 62.0722 98.758 62.0009V63.5886C98.5261 63.6897 98.2258 63.7759 97.8571 63.8472C97.4884 63.9186 97.1049 63.9543 96.7065 63.9543C96.1475 63.9543 95.645 63.8621 95.1991 63.6778C94.7531 63.4875 94.3993 63.1634 94.1376 62.7055C93.876 62.2477 93.7452 61.6144 93.7452 60.8057V55.4985H92.3983V54.562L93.8433 53.8217L94.5301 51.7077H95.8502V53.9019H98.6777V55.4985H95.8502V60.7789C95.8502 61.2784 95.9751 61.6501 96.2248 61.8939C96.4746 62.1377 96.8046 62.2596 97.2149 62.2596ZM39.7908 80.7759L36.0357 69.8851H35.9554C35.9733 70.1289 35.9941 70.4619 36.0179 70.8841C36.0416 71.3063 36.0624 71.7582 36.0803 72.2399C36.0981 72.7215 36.107 73.1824 36.107 73.6224V80.7759H34.1626V67.7355H37.1685L40.7809 78.1446H40.8344L44.5717 67.7355H47.5687V80.7759H45.5261V73.5154C45.5261 73.117 45.532 72.6858 45.5439 72.222C45.5618 71.7582 45.5796 71.3182 45.5974 70.9019C45.6212 70.4857 45.6391 70.1527 45.651 69.9029H45.5796L41.6818 80.7759H39.7908ZM59.5298 75.8166C59.5298 76.6372 59.4228 77.3656 59.2087 78.0019C58.9946 78.6382 58.6824 79.1763 58.2721 79.6163C57.8618 80.0504 57.3683 80.3834 56.7915 80.6153C56.2147 80.8413 55.5636 80.9543 54.8381 80.9543C54.1602 80.9543 53.5388 80.8413 52.9739 80.6153C52.409 80.3834 51.9184 80.0504 51.5022 79.6163C51.0919 79.1763 50.7738 78.6382 50.5478 78.0019C50.3218 77.3656 50.2089 76.6372 50.2089 75.8166C50.2089 74.7284 50.3962 73.8067 50.7708 73.0515C51.1514 72.2904 51.6925 71.7106 52.3941 71.3122C53.0958 70.9138 53.9313 70.7146 54.9005 70.7146C55.8103 70.7146 56.6131 70.9138 57.3088 71.3122C58.0045 71.7106 58.5486 72.2904 58.9411 73.0515C59.3336 73.8127 59.5298 74.7344 59.5298 75.8166ZM52.3674 75.8166C52.3674 76.5361 52.4536 77.1516 52.6261 77.663C52.8044 78.1743 53.078 78.5668 53.4467 78.8403C53.8153 79.1079 54.291 79.2417 54.8738 79.2417C55.4565 79.2417 55.9322 79.1079 56.3009 78.8403C56.6696 78.5668 56.9401 78.1743 57.1126 77.663C57.285 77.1516 57.3713 76.5361 57.3713 75.8166C57.3713 75.0971 57.285 74.4876 57.1126 73.9881C56.9401 73.4827 56.6696 73.0991 56.3009 72.8375C55.9322 72.5699 55.4536 72.4361 54.8649 72.4361C53.9967 72.4361 53.3634 72.7275 52.965 73.3102C52.5666 73.893 52.3674 74.7284 52.3674 75.8166ZM64.0342 66.8971V70.2419C64.0342 70.6284 64.0223 71.009 63.9985 71.3836C63.9806 71.7523 63.9628 72.0407 63.945 72.2488H64.0342C64.3017 71.8206 64.6734 71.4609 65.1491 71.1695C65.6308 70.8722 66.2462 70.7235 66.9955 70.7235C68.1669 70.7235 69.1094 71.1547 69.823 72.0169C70.5365 72.8732 70.8933 74.1427 70.8933 75.8255C70.8933 76.9434 70.7298 77.883 70.4027 78.6441C70.0757 79.4052 69.6148 79.982 69.0202 80.3745C68.4315 80.761 67.7387 80.9543 66.9419 80.9543C66.1927 80.9543 65.5862 80.8175 65.1223 80.544C64.6645 80.2645 64.3047 79.9404 64.0431 79.5717H63.8914L63.5079 80.7759H61.9381V66.8971H64.0342ZM66.4424 72.4272C65.8478 72.4272 65.3751 72.5461 65.0242 72.784C64.6793 73.0218 64.4296 73.3786 64.275 73.8543C64.1204 74.3241 64.0401 74.9217 64.0342 75.6471V75.8344C64.0342 76.9345 64.2066 77.7759 64.5515 78.3587C64.9023 78.9414 65.5386 79.2328 66.4603 79.2328C67.1917 79.2328 67.7536 78.9385 68.1461 78.3498C68.5385 77.7551 68.7348 76.9048 68.7348 75.7988C68.7348 74.6809 68.5385 73.8394 68.1461 73.2745C67.7596 72.7096 67.1917 72.4272 66.4424 72.4272ZM75.4155 70.9019V80.7759H73.3194V70.9019H75.4155ZM74.3808 67.12C74.7019 67.12 74.9785 67.2063 75.2104 67.3787C75.4482 67.5512 75.5671 67.8485 75.5671 68.2707C75.5671 68.6869 75.4482 68.9842 75.2104 69.1626C74.9785 69.3351 74.7019 69.4213 74.3808 69.4213C74.0478 69.4213 73.7654 69.3351 73.5335 69.1626C73.3075 68.9842 73.1945 68.6869 73.1945 68.2707C73.1945 67.8485 73.3075 67.5512 73.5335 67.3787C73.7654 67.2063 74.0478 67.12 74.3808 67.12ZM80.5264 80.7759H78.4214V66.8971H80.5264V80.7759ZM87.4569 70.7146C88.337 70.7146 89.0922 70.896 89.7225 71.2587C90.3528 71.6214 90.8374 72.1358 91.1764 72.8018C91.5153 73.4678 91.6848 74.2646 91.6848 75.1922V76.3161H85.0932C85.117 77.2735 85.3727 78.0108 85.8603 78.5282C86.3539 79.0455 87.0436 79.3042 87.9296 79.3042C88.56 79.3042 89.1249 79.2447 89.6244 79.1258C90.1298 79.0009 90.6501 78.8195 91.1853 78.5817V80.2853C90.6917 80.5172 90.1893 80.6867 89.6779 80.7937C89.1665 80.9008 88.554 80.9543 87.8404 80.9543C86.8712 80.9543 86.0179 80.767 85.2805 80.3923C84.5491 80.0118 83.9753 79.4469 83.5591 78.6976C83.1488 77.9484 82.9436 77.0178 82.9436 75.9058C82.9436 74.7998 83.1309 73.8603 83.5055 73.0872C83.8802 72.3142 84.4064 71.7255 85.0843 71.3212C85.7622 70.9168 86.5531 70.7146 87.4569 70.7146ZM87.4569 72.2934C86.7969 72.2934 86.2617 72.5075 85.8514 72.9356C85.447 73.3637 85.2092 73.9911 85.1378 74.8176H89.6333C89.6273 74.3241 89.5441 73.887 89.3835 73.5064C89.2289 73.1259 88.9911 72.8286 88.67 72.6145C88.3548 72.4004 87.9504 72.2934 87.4569 72.2934ZM107.089 80.7759L105.813 77.1545H100.827L99.5518 80.7759H97.2952L102.147 67.682H104.52L109.363 80.7759H107.089ZM105.26 75.3171L104.021 71.7493C103.973 71.5947 103.905 71.3776 103.815 71.0982C103.726 70.8127 103.637 70.5243 103.548 70.233C103.459 69.9357 103.384 69.6859 103.325 69.4837C103.265 69.7275 103.191 70.0011 103.102 70.3043C103.019 70.6016 102.935 70.8811 102.852 71.1428C102.775 71.4044 102.715 71.6066 102.674 71.7493L101.425 75.3171H105.26ZM115.937 70.7146C117.108 70.7146 118.048 71.1428 118.756 71.999C119.469 72.8553 119.826 74.1278 119.826 75.8166C119.826 76.9345 119.659 77.877 119.326 78.6441C118.999 79.4052 118.539 79.982 117.944 80.3745C117.355 80.761 116.668 80.9543 115.884 80.9543C115.384 80.9543 114.95 80.8889 114.581 80.758C114.213 80.6272 113.897 80.4577 113.636 80.2496C113.374 80.0356 113.154 79.8036 112.976 79.5539H112.851C112.881 79.7918 112.907 80.0564 112.931 80.3477C112.961 80.6332 112.976 80.8948 112.976 81.1327V85.1554H110.871V70.9019H112.583L112.878 72.2666H112.976C113.16 71.9871 113.383 71.7285 113.645 71.4906C113.912 71.2528 114.233 71.0655 114.608 70.9287C114.989 70.786 115.432 70.7146 115.937 70.7146ZM115.375 72.4272C114.798 72.4272 114.334 72.5431 113.984 72.775C113.639 73.001 113.386 73.3429 113.225 73.8008C113.071 74.2587 112.988 74.8325 112.976 75.5223V75.8166C112.976 76.548 113.05 77.1694 113.199 77.6808C113.353 78.1862 113.606 78.5727 113.957 78.8403C114.314 79.102 114.795 79.2328 115.402 79.2328C115.913 79.2328 116.335 79.0931 116.668 78.8136C117.007 78.5341 117.26 78.1357 117.427 77.6184C117.593 77.101 117.676 76.4915 117.676 75.7898C117.676 74.7255 117.486 73.8989 117.105 73.3102C116.731 72.7215 116.154 72.4272 115.375 72.4272ZM127.318 70.7146C128.49 70.7146 129.429 71.1428 130.137 71.999C130.851 72.8553 131.207 74.1278 131.207 75.8166C131.207 76.9345 131.041 77.877 130.708 78.6441C130.381 79.4052 129.92 79.982 129.325 80.3745C128.737 80.761 128.05 80.9543 127.265 80.9543C126.765 80.9543 126.331 80.8889 125.963 80.758C125.594 80.6272 125.279 80.4577 125.017 80.2496C124.755 80.0356 124.535 79.8036 124.357 79.5539H124.232C124.262 79.7918 124.289 80.0564 124.312 80.3477C124.342 80.6332 124.357 80.8948 124.357 81.1327V85.1554H122.252V70.9019H123.965L124.259 72.2666H124.357C124.541 71.9871 124.764 71.7285 125.026 71.4906C125.294 71.2528 125.615 71.0655 125.989 70.9287C126.37 70.786 126.813 70.7146 127.318 70.7146ZM126.756 72.4272C126.18 72.4272 125.716 72.5431 125.365 72.775C125.02 73.001 124.767 73.3429 124.607 73.8008C124.452 74.2587 124.369 74.8325 124.357 75.5223V75.8166C124.357 76.548 124.431 77.1694 124.58 77.6808C124.735 78.1862 124.987 78.5727 125.338 78.8403C125.695 79.102 126.177 79.2328 126.783 79.2328C127.295 79.2328 127.717 79.0931 128.05 78.8136C128.389 78.5341 128.641 78.1357 128.808 77.6184C128.974 77.101 129.058 76.4915 129.058 75.7898C129.058 74.7255 128.867 73.8989 128.487 73.3102C128.112 72.7215 127.535 72.4272 126.756 72.4272Z" fill="#303030"/>
<path d="M66.9365 171.354H54.3147V168.699L58.8472 164.117C60.1892 162.742 61.0661 161.791 61.4778 161.264C61.8894 160.729 62.1858 160.235 62.367 159.782C62.5481 159.329 62.6387 158.86 62.6387 158.374C62.6387 157.649 62.437 157.11 62.0335 156.756C61.6383 156.402 61.1073 156.225 60.4403 156.225C59.7405 156.225 59.0612 156.386 58.4026 156.707C57.7439 157.028 57.0564 157.485 56.3401 158.078L54.2653 155.62C55.1545 154.862 55.8914 154.327 56.4759 154.014C57.0605 153.702 57.6986 153.463 58.3902 153.298C59.0818 153.125 59.8558 153.039 60.712 153.039C61.84 153.039 62.8363 153.245 63.7008 153.656C64.5653 154.068 65.2363 154.644 65.7139 155.385C66.1914 156.126 66.4302 156.974 66.4302 157.929C66.4302 158.761 66.282 159.543 65.9856 160.276C65.6974 161 65.2446 161.746 64.627 162.511C64.0178 163.277 62.9392 164.368 61.3913 165.784L59.0695 167.97V168.143H66.9365V171.354ZM81.2874 162.326C81.2874 165.479 80.7687 167.814 79.7313 169.329C78.7021 170.844 77.113 171.601 74.9641 171.601C72.8811 171.601 71.3085 170.819 70.2464 169.254C69.1925 167.69 68.6655 165.381 68.6655 162.326C68.6655 159.14 69.1801 156.793 70.2093 155.286C71.2385 153.772 72.8234 153.014 74.9641 153.014C77.0472 153.014 78.6198 153.804 79.6819 155.385C80.7522 156.966 81.2874 159.28 81.2874 162.326ZM72.457 162.326C72.457 164.541 72.6464 166.13 73.0251 167.093C73.4121 168.048 74.0584 168.526 74.9641 168.526C75.8533 168.526 76.4955 168.04 76.8907 167.069C77.2859 166.097 77.4835 164.516 77.4835 162.326C77.4835 160.111 77.2818 158.522 76.8784 157.559C76.4832 156.587 75.8451 156.102 74.9641 156.102C74.0667 156.102 73.4245 156.587 73.0375 157.559C72.6505 158.522 72.457 160.111 72.457 162.326ZM95.8359 171.354H83.214V168.699L87.7465 164.117C89.0886 162.742 89.9654 161.791 90.3771 161.264C90.7888 160.729 91.0852 160.235 91.2663 159.782C91.4474 159.329 91.538 158.86 91.538 158.374C91.538 157.649 91.3363 157.11 90.9329 156.756C90.5377 156.402 90.0066 156.225 89.3397 156.225C88.6398 156.225 87.9606 156.386 87.3019 156.707C86.6432 157.028 85.9558 157.485 85.2394 158.078L83.1646 155.62C84.0538 154.862 84.7907 154.327 85.3753 154.014C85.9599 153.702 86.598 153.463 87.2896 153.298C87.9812 153.125 88.7551 153.039 89.6114 153.039C90.7394 153.039 91.7356 153.245 92.6001 153.656C93.4646 154.068 94.1357 154.644 94.6132 155.385C95.0907 156.126 95.3295 156.974 95.3295 157.929C95.3295 158.761 95.1813 159.543 94.8849 160.276C94.5967 161 94.1439 161.746 93.5264 162.511C92.9171 163.277 91.8385 164.368 90.2907 165.784L87.9688 167.97V168.143H95.8359V171.354ZM113.521 171.354H109.149L104.95 164.524L100.751 171.354H96.651L102.641 162.042L97.0338 153.298H101.258L105.148 159.794L108.964 153.298H113.089L107.42 162.252L113.521 171.354Z" fill="#303030"/>
<path d="M74.9128 16.5763H80.882V24.3775C79.9146 24.6931 79.0021 24.9127 78.1444 25.0362C77.2936 25.1665 76.4222 25.2317 75.5303 25.2317C73.2592 25.2317 71.5234 24.5662 70.3226 23.2351C69.1288 21.8972 68.5319 19.9795 68.5319 17.482C68.5319 15.0531 69.2249 13.1594 70.6108 11.8009C72.0036 10.4424 73.9316 9.76315 76.3948 9.76315C77.9386 9.76315 79.4274 10.0719 80.8614 10.6894L79.8014 13.2418C78.7036 12.6929 77.5612 12.4184 76.3742 12.4184C74.9951 12.4184 73.8905 12.8816 73.0603 13.8078C72.2301 14.7341 71.815 15.9794 71.815 17.5437C71.815 19.1767 72.1477 20.4254 72.8133 21.29C73.4857 22.1476 74.4599 22.5764 75.7361 22.5764C76.4017 22.5764 77.0775 22.5078 77.7636 22.3706V19.2316H74.9128V16.5763ZM93.9423 25.0259H83.4241V22.8131L87.2012 18.9949C88.3196 17.8491 89.0503 17.0566 89.3933 16.6175C89.7364 16.1715 89.9834 15.7598 90.1343 15.3825C90.2853 15.0051 90.3608 14.614 90.3608 14.2092C90.3608 13.6054 90.1927 13.156 89.8565 12.861C89.5271 12.566 89.0846 12.4184 88.5288 12.4184C87.9456 12.4184 87.3796 12.5522 86.8307 12.8198C86.2818 13.0874 85.7089 13.4682 85.1119 13.9622L83.3829 11.9141C84.1239 11.2829 84.738 10.8369 85.2252 10.5762C85.7123 10.3155 86.244 10.1165 86.8204 9.97928C87.3967 9.8352 88.0417 9.76315 88.7552 9.76315C89.6952 9.76315 90.5254 9.93468 91.2459 10.2777C91.9663 10.6208 92.5255 11.1011 92.9234 11.7186C93.3214 12.3361 93.5203 13.0428 93.5203 13.8387C93.5203 14.5317 93.3968 15.1835 93.1498 15.7941C92.9097 16.3979 92.5323 17.0189 92.0177 17.657C91.51 18.295 90.6112 19.2042 89.3213 20.3843L87.3864 22.2059V22.35H93.9423V25.0259Z" fill="#303030"/>
<rect x="0.921387" y="92.7412" width="163" height="46.3707" rx="7.02586" fill="#7D5FFF"/>
<path d="M46.8463 120.794C46.8463 121.924 46.5682 122.898 46.012 123.714C45.4645 124.531 44.6736 125.157 43.6394 125.592C42.6139 126.026 41.3885 126.244 39.9632 126.244C39.2679 126.244 38.6031 126.204 37.9686 126.126C37.3342 126.048 36.7345 125.935 36.1696 125.787C35.6134 125.631 35.105 125.444 34.6444 125.227V122.28C35.4179 122.619 36.2826 122.928 37.2386 123.206C38.1946 123.475 39.168 123.61 40.1587 123.61C40.967 123.61 41.6362 123.506 42.1663 123.297C42.7052 123.08 43.1049 122.776 43.3657 122.385C43.6264 121.985 43.7567 121.52 43.7567 120.99C43.7567 120.425 43.6047 119.947 43.3005 119.556C42.9963 119.165 42.5357 118.808 41.9186 118.487C41.3103 118.157 40.5455 117.805 39.6242 117.431C38.9985 117.179 38.3988 116.892 37.8252 116.571C37.2603 116.249 36.7563 115.871 36.313 115.436C35.8698 115.002 35.5178 114.489 35.2571 113.898C35.0051 113.299 34.879 112.595 34.879 111.786C34.879 110.709 35.1354 109.787 35.6482 109.023C36.1696 108.258 36.8997 107.671 37.8383 107.263C38.7856 106.854 39.8893 106.65 41.1495 106.65C42.1489 106.65 43.0875 106.754 43.9653 106.963C44.8518 107.171 45.7209 107.467 46.5726 107.849L45.5818 110.365C44.7996 110.044 44.0392 109.787 43.3005 109.596C42.5704 109.405 41.823 109.309 41.0582 109.309C40.3977 109.309 39.8372 109.409 39.3766 109.609C38.9159 109.809 38.564 110.092 38.3206 110.457C38.086 110.813 37.9686 111.239 37.9686 111.734C37.9686 112.29 38.1033 112.76 38.3728 113.142C38.6509 113.516 39.0767 113.859 39.6503 114.172C40.2326 114.485 40.98 114.832 41.8926 115.215C42.9442 115.649 43.835 116.106 44.565 116.584C45.3037 117.062 45.8686 117.635 46.2597 118.304C46.6508 118.965 46.8463 119.795 46.8463 120.794ZM56.063 106.924C58.5225 106.924 60.3171 107.428 61.447 108.436C62.5768 109.444 63.1417 110.856 63.1417 112.673C63.1417 113.498 63.0113 114.285 62.7506 115.032C62.4986 115.771 62.0814 116.427 61.4991 117.001C60.9168 117.566 60.1477 118.013 59.1917 118.344C58.2444 118.674 57.0755 118.839 55.6849 118.839H53.6513V125.983H50.5226V106.924H56.063ZM55.8544 109.518H53.6513V116.232H55.359C56.3411 116.232 57.1754 116.119 57.862 115.893C58.5486 115.658 59.07 115.289 59.4263 114.785C59.7827 114.281 59.9608 113.616 59.9608 112.79C59.9608 111.686 59.6262 110.865 58.957 110.326C58.2965 109.787 57.2623 109.518 55.8544 109.518ZM72.3062 106.924C73.9487 106.924 75.3045 107.124 76.3735 107.523C77.4511 107.923 78.2507 108.532 78.7722 109.349C79.3023 110.165 79.5674 111.204 79.5674 112.464C79.5674 113.403 79.3936 114.202 79.0459 114.863C78.6983 115.523 78.242 116.071 77.6771 116.505C77.1122 116.94 76.5082 117.288 75.8651 117.548L81.2751 125.983H77.7423L73.1405 118.344H70.077V125.983H66.9483V106.924H72.3062ZM72.0976 109.531H70.077V115.762H72.241C73.6924 115.762 74.744 115.493 75.3958 114.954C76.0563 114.415 76.3865 113.62 76.3865 112.568C76.3865 111.465 76.0345 110.683 75.3306 110.222C74.6353 109.761 73.5576 109.531 72.0976 109.531ZM83.9997 125.983V106.924H87.1284V125.983H83.9997ZM108.065 125.983H104.219L94.885 110.769H94.7677C94.8024 111.282 94.8328 111.825 94.8589 112.399C94.8937 112.973 94.9197 113.564 94.9371 114.172C94.9632 114.78 94.9849 115.397 95.0023 116.023V125.983H92.1604V106.924H95.98L105.301 122.033H105.392C105.375 121.59 105.353 121.081 105.327 120.508C105.301 119.934 105.275 119.343 105.249 118.735C105.231 118.118 105.218 117.522 105.21 116.949V106.924H108.065V125.983ZM120.762 115.632H127.88V125.201C126.88 125.531 125.846 125.787 124.777 125.97C123.708 126.152 122.509 126.244 121.179 126.244C119.241 126.244 117.599 125.861 116.251 125.096C114.913 124.323 113.896 123.206 113.201 121.746C112.506 120.277 112.158 118.509 112.158 116.44C112.158 114.45 112.545 112.725 113.318 111.265C114.092 109.796 115.217 108.662 116.695 107.862C118.172 107.054 119.962 106.65 122.066 106.65C123.1 106.65 124.099 106.754 125.064 106.963C126.037 107.163 126.928 107.441 127.736 107.797L126.641 110.378C125.998 110.074 125.277 109.818 124.477 109.609C123.678 109.401 122.848 109.296 121.987 109.296C120.623 109.296 119.445 109.592 118.455 110.183C117.472 110.774 116.716 111.608 116.186 112.686C115.656 113.755 115.391 115.019 115.391 116.479C115.391 117.896 115.604 119.139 116.03 120.208C116.456 121.277 117.121 122.111 118.024 122.711C118.937 123.302 120.115 123.597 121.557 123.597C122.279 123.597 122.891 123.558 123.395 123.48C123.899 123.402 124.364 123.315 124.79 123.219V118.304H120.762V115.632Z" fill="white"/>
</svg>
