<svg width="193" height="184" viewBox="0 0 193 184" fill="none" xmlns="http://www.w3.org/2000/svg">
<circle cx="96" cy="84.0524" r="84" fill="white"/>
<path d="M56.5303 35.3478H64.9727C68.8197 35.3478 71.609 35.8982 73.3408 36.9991C75.085 38.0877 75.957 39.8256 75.957 42.213C75.957 43.8335 75.5736 45.1632 74.8066 46.2023C74.0521 47.2413 73.0439 47.866 71.7822 48.0763V48.2618C73.5016 48.6453 74.7386 49.3628 75.4932 50.4142C76.2601 51.4656 76.6436 52.8634 76.6436 54.6075C76.6436 57.0815 75.7467 59.0112 73.9531 60.3966C72.1719 61.782 69.7474 62.4747 66.6797 62.4747H56.5303V35.3478ZM62.2822 46.0909H65.6221C67.1807 46.0909 68.3063 45.8497 68.999 45.3673C69.7041 44.8849 70.0566 44.087 70.0566 42.9738C70.0566 41.9347 69.6732 41.1925 68.9062 40.7472C68.1517 40.2895 66.9518 40.0607 65.3066 40.0607H62.2822V46.0909ZM62.2822 50.6554V57.7247H66.0303C67.6136 57.7247 68.7826 57.4217 69.5371 56.8156C70.2917 56.2094 70.6689 55.2817 70.6689 54.0323C70.6689 51.781 69.0609 50.6554 65.8447 50.6554H62.2822ZM97.6846 62.4747H82.0615V35.3478H97.6846V40.0607H87.8135V46.0167H96.998V50.7296H87.8135V57.7247H97.6846V62.4747ZM119.375 54.9415C119.375 57.3907 118.491 59.3204 116.722 60.7306C114.965 62.1407 112.516 62.8458 109.374 62.8458C106.479 62.8458 103.919 62.3016 101.692 61.213V55.8693C103.523 56.6857 105.069 57.2609 106.331 57.5948C107.605 57.9288 108.768 58.0958 109.819 58.0958C111.081 58.0958 112.046 57.8546 112.714 57.3722C113.394 56.8898 113.734 56.1723 113.734 55.2198C113.734 54.6879 113.586 54.2179 113.289 53.8097C112.992 53.3891 112.553 52.9871 111.972 52.6036C111.403 52.2202 110.234 51.6079 108.465 50.7667C106.807 49.9874 105.564 49.2391 104.735 48.5216C103.907 47.8042 103.245 46.9692 102.75 46.0167C102.255 45.0642 102.008 43.951 102.008 42.6769C102.008 40.2771 102.818 38.3907 104.438 37.0177C106.071 35.6447 108.323 34.9581 111.192 34.9581C112.603 34.9581 113.945 35.1251 115.219 35.4591C116.505 35.7931 117.847 36.2631 119.245 36.8693L117.39 41.3409C115.942 40.7472 114.743 40.3328 113.79 40.0978C112.85 39.8628 111.922 39.7452 111.007 39.7452C109.918 39.7452 109.083 39.9988 108.502 40.506C107.921 41.0131 107.63 41.6749 107.63 42.4913C107.63 42.9985 107.747 43.4438 107.982 43.8273C108.217 44.1984 108.589 44.5633 109.096 44.922C109.615 45.2684 110.834 45.8992 112.751 46.8146C115.287 48.0268 117.025 49.2452 117.965 50.4698C118.905 51.6821 119.375 53.1726 119.375 54.9415ZM134.757 62.4747H129.005V40.1349H121.639V35.3478H142.123V40.1349H134.757V62.4747Z" fill="#231656"/>
<path d="M76.3077 74.4146C76.3077 75.0387 76.2283 75.6074 76.0696 76.1207C75.9145 76.6302 75.68 77.0697 75.3661 77.4389C75.0522 77.8045 74.659 78.087 74.1863 78.2864C73.7136 78.4858 73.1597 78.5855 72.5246 78.5855C71.8784 78.5855 71.3171 78.4858 70.8407 78.2864C70.3681 78.087 69.9748 77.8027 69.6609 77.4334C69.3507 77.0641 69.1181 76.6229 68.963 76.1096C68.8079 75.5963 68.7304 75.0276 68.7304 74.4036C68.7304 73.569 68.867 72.8416 69.1403 72.2212C69.4172 71.5971 69.8363 71.1134 70.3976 70.77C70.9626 70.4229 71.6753 70.2493 72.5357 70.2493C73.3776 70.2493 74.0774 70.421 74.635 70.7644C75.1925 71.1078 75.6098 71.5916 75.8868 72.2156C76.1674 72.836 76.3077 73.569 76.3077 74.4146ZM70.1262 74.4146C70.1262 75.0387 70.2111 75.5797 70.381 76.0376C70.5509 76.4918 70.8112 76.8426 71.162 77.09C71.5165 77.3337 71.9707 77.4556 72.5246 77.4556C73.0822 77.4556 73.5364 77.3337 73.8872 77.09C74.238 76.8426 74.4965 76.4918 74.6626 76.0376C74.8288 75.5797 74.9119 75.0387 74.9119 74.4146C74.9119 73.4656 74.7217 72.7234 74.3414 72.188C73.9647 71.6488 73.3628 71.3793 72.5357 71.3793C71.9818 71.3793 71.5257 71.5011 71.1675 71.7448C70.813 71.9885 70.5509 72.3375 70.381 72.7917C70.2111 73.2422 70.1262 73.7832 70.1262 74.4146ZM81.1101 72.2267C81.8006 72.2267 82.3379 72.4058 82.7219 72.764C83.1096 73.1185 83.3035 73.689 83.3035 74.4756V78.4747H82.0018V74.7193C82.0018 74.2429 81.904 73.8866 81.7083 73.6503C81.5126 73.4102 81.2098 73.2902 80.7999 73.2902C80.2054 73.2902 79.7918 73.473 79.5591 73.8386C79.3302 74.2042 79.2157 74.7341 79.2157 75.4283V78.4747H77.9141V72.343H78.9277L79.1105 73.1739H79.1825C79.3154 72.9597 79.4797 72.7843 79.6755 72.6477C79.8749 72.5074 80.0964 72.4021 80.3401 72.332C80.5875 72.2618 80.8442 72.2267 81.1101 72.2267ZM86.4331 78.4747H85.1258V69.856H86.4331V78.4747ZM89.5958 72.343V78.4747H88.2942V72.343H89.5958ZM88.9533 69.9945C89.1527 69.9945 89.3244 70.048 89.4684 70.1551C89.6161 70.2622 89.69 70.4469 89.69 70.709C89.69 70.9675 89.6161 71.1522 89.4684 71.2629C89.3244 71.37 89.1527 71.4236 88.9533 71.4236C88.7465 71.4236 88.5711 71.37 88.4271 71.2629C88.2868 71.1522 88.2166 70.9675 88.2166 70.709C88.2166 70.4469 88.2868 70.2622 88.4271 70.1551C88.5711 70.048 88.7465 69.9945 88.9533 69.9945ZM94.6585 72.2267C95.349 72.2267 95.8863 72.4058 96.2703 72.764C96.6581 73.1185 96.8519 73.689 96.8519 74.4756V78.4747H95.5503V74.7193C95.5503 74.2429 95.4524 73.8866 95.2567 73.6503C95.061 73.4102 94.7582 73.2902 94.3483 73.2902C93.7538 73.2902 93.3402 73.473 93.1076 73.8386C92.8786 74.2042 92.7641 74.7341 92.7641 75.4283V78.4747H91.4625V72.343H92.4761L92.6589 73.1739H92.7309C92.8638 72.9597 93.0282 72.7843 93.2239 72.6477C93.4233 72.5074 93.6448 72.4021 93.8886 72.332C94.136 72.2618 94.3926 72.2267 94.6585 72.2267ZM101.117 72.2267C101.663 72.2267 102.132 72.3394 102.524 72.5646C102.915 72.7899 103.216 73.1093 103.427 73.5229C103.637 73.9364 103.742 74.4313 103.742 75.0073V75.7052H99.6491C99.6639 76.2997 99.8227 76.7576 100.125 77.0789C100.432 77.4002 100.86 77.5608 101.411 77.5608C101.802 77.5608 102.153 77.5239 102.463 77.45C102.777 77.3725 103.1 77.2598 103.432 77.1121V78.1701C103.126 78.3141 102.814 78.4193 102.496 78.4858C102.179 78.5523 101.798 78.5855 101.355 78.5855C100.753 78.5855 100.223 78.4692 99.7655 78.2366C99.3113 78.0002 98.9549 77.6494 98.6964 77.1841C98.4416 76.7189 98.3142 76.141 98.3142 75.4504C98.3142 74.7636 98.4306 74.1801 98.6632 73.7001C98.8958 73.2201 99.2226 72.8545 99.6436 72.6034C100.065 72.3523 100.556 72.2267 101.117 72.2267ZM101.117 73.2071C100.707 73.2071 100.375 73.3401 100.12 73.6059C99.8689 73.8718 99.7211 74.2614 99.6768 74.7747H102.468C102.465 74.4682 102.413 74.1968 102.313 73.9604C102.217 73.7241 102.07 73.5395 101.87 73.4065C101.675 73.2736 101.423 73.2071 101.117 73.2071ZM111.303 72.2267C112.031 72.2267 112.614 72.4926 113.054 73.0243C113.497 73.5561 113.718 74.3463 113.718 75.395C113.718 76.0893 113.615 76.6746 113.408 77.1509C113.205 77.6236 112.919 77.9818 112.55 78.2255C112.184 78.4655 111.757 78.5855 111.27 78.5855C110.96 78.5855 110.69 78.5449 110.461 78.4637C110.232 78.3824 110.037 78.2772 109.874 78.1479C109.712 78.015 109.575 77.871 109.464 77.7159H109.387C109.405 77.8636 109.422 78.0279 109.437 78.2089C109.455 78.3861 109.464 78.5486 109.464 78.6963V81.1944H108.157V72.343H109.221L109.403 73.1905H109.464C109.579 73.017 109.717 72.8563 109.88 72.7086C110.046 72.5609 110.245 72.4446 110.478 72.3597C110.714 72.271 110.989 72.2267 111.303 72.2267ZM110.954 73.2902C110.596 73.2902 110.308 73.3622 110.09 73.5062C109.876 73.6466 109.719 73.8589 109.619 74.1432C109.523 74.4276 109.472 74.7839 109.464 75.2123V75.395C109.464 75.8492 109.51 76.2351 109.603 76.5527C109.699 76.8666 109.856 77.1066 110.074 77.2728C110.295 77.4352 110.594 77.5165 110.971 77.5165C111.288 77.5165 111.551 77.4297 111.757 77.2561C111.968 77.0826 112.125 76.8352 112.228 76.5139C112.332 76.1927 112.383 75.8142 112.383 75.3784C112.383 74.7174 112.265 74.2042 112.029 73.8386C111.796 73.473 111.438 73.2902 110.954 73.2902ZM117.629 72.2267C118.404 72.2267 118.99 72.3984 119.385 72.7419C119.783 73.0853 119.983 73.6207 119.983 74.3482V78.4747H119.058L118.809 77.6051H118.764C118.591 77.8267 118.412 78.0095 118.227 78.1535C118.042 78.2975 117.828 78.4046 117.584 78.4747C117.344 78.5486 117.051 78.5855 116.704 78.5855C116.338 78.5855 116.011 78.519 115.723 78.3861C115.435 78.2495 115.208 78.0427 115.042 77.7657C114.876 77.4888 114.793 77.138 114.793 76.7133C114.793 76.0819 115.027 75.6074 115.496 75.2898C115.969 74.9722 116.682 74.7968 117.634 74.7636L118.698 74.7248V74.4036C118.698 73.9789 118.598 73.6761 118.399 73.4952C118.203 73.3142 117.926 73.2237 117.568 73.2237C117.261 73.2237 116.964 73.2681 116.676 73.3567C116.388 73.4453 116.107 73.5542 115.834 73.6835L115.413 72.764C115.712 72.6052 116.052 72.476 116.432 72.3763C116.816 72.2766 117.215 72.2267 117.629 72.2267ZM118.692 75.5446L117.9 75.5723C117.25 75.5944 116.794 75.7052 116.532 75.9046C116.27 76.104 116.139 76.3773 116.139 76.7244C116.139 77.0272 116.229 77.2488 116.41 77.3891C116.591 77.5257 116.829 77.594 117.125 77.594C117.575 77.594 117.948 77.4666 118.244 77.2118C118.543 76.9533 118.692 76.5748 118.692 76.0763V75.5446ZM120.88 72.343H122.298L123.556 75.8437C123.611 76.0025 123.661 76.1594 123.705 76.3145C123.753 76.4659 123.794 76.6155 123.827 76.7632C123.864 76.9109 123.893 77.0586 123.916 77.2063H123.949C123.986 77.0143 124.037 76.8001 124.104 76.5638C124.174 76.3237 124.252 76.0837 124.337 75.8437L125.544 72.343H126.945L124.314 79.3167C124.163 79.7155 123.976 80.0552 123.755 80.3358C123.537 80.6202 123.279 80.8344 122.979 80.9784C122.68 81.1261 122.339 81.1999 121.955 81.1999C121.77 81.1999 121.609 81.1888 121.473 81.1667C121.336 81.1482 121.22 81.1279 121.124 81.1058V80.0644C121.201 80.0829 121.299 80.0995 121.417 80.1143C121.536 80.1291 121.657 80.1364 121.783 80.1364C122.016 80.1364 122.217 80.0903 122.387 79.998C122.557 79.9056 122.701 79.7746 122.819 79.6047C122.937 79.4385 123.035 79.2483 123.112 79.0342L123.328 78.4581L120.88 72.343ZM47.7929 94.4747L45.461 87.7116H45.4111C45.4222 87.863 45.4351 88.0698 45.4499 88.332C45.4647 88.5941 45.4776 88.8748 45.4887 89.1739C45.4997 89.473 45.5053 89.7592 45.5053 90.0324V94.4747H44.2978V86.3767H46.1644L48.4077 92.8407H48.441L50.7618 86.3767H52.6229V94.4747H51.3545V89.966C51.3545 89.7186 51.3582 89.4508 51.3656 89.1628C51.3766 88.8748 51.3877 88.6015 51.3988 88.343C51.4136 88.0846 51.4246 87.8778 51.432 87.7227H51.3877L48.9672 94.4747H47.7929ZM60.0507 91.395C60.0507 91.9046 59.9843 92.357 59.8513 92.7521C59.7184 93.1472 59.5245 93.4814 59.2697 93.7547C59.0149 94.0242 58.7084 94.231 58.3503 94.375C57.9921 94.5154 57.5877 94.5855 57.1372 94.5855C56.7162 94.5855 56.3304 94.5154 55.9796 94.375C55.6288 94.231 55.3241 94.0242 55.0656 93.7547C54.8108 93.4814 54.6133 93.1472 54.4729 92.7521C54.3326 92.357 54.2625 91.9046 54.2625 91.395C54.2625 90.7193 54.3788 90.1469 54.6114 89.6779C54.8478 89.2053 55.1838 88.8452 55.6195 88.5978C56.0553 88.3504 56.5741 88.2267 57.176 88.2267C57.741 88.2267 58.2395 88.3504 58.6715 88.5978C59.1036 88.8452 59.4414 89.2053 59.6852 89.6779C59.9289 90.1506 60.0507 90.723 60.0507 91.395ZM55.6029 91.395C55.6029 91.8419 55.6564 92.224 55.7635 92.5416C55.8743 92.8592 56.0442 93.1029 56.2731 93.2728C56.5021 93.4389 56.7975 93.522 57.1594 93.522C57.5212 93.522 57.8167 93.4389 58.0456 93.2728C58.2746 93.1029 58.4426 92.8592 58.5497 92.5416C58.6567 92.224 58.7103 91.8419 58.7103 91.395C58.7103 90.9482 58.6567 90.5697 58.5497 90.2595C58.4426 89.9457 58.2746 89.7075 58.0456 89.545C57.8167 89.3788 57.5194 89.2958 57.1538 89.2958C56.6147 89.2958 56.2214 89.4767 55.974 89.8386C55.7266 90.2005 55.6029 90.7193 55.6029 91.395ZM62.8479 85.856V87.9332C62.8479 88.1732 62.8405 88.4095 62.8258 88.6422C62.8147 88.8711 62.8036 89.0502 62.7925 89.1794H62.8479C63.0141 88.9136 63.2449 88.6902 63.5403 88.5092C63.8394 88.3246 64.2216 88.2323 64.6869 88.2323C65.4143 88.2323 65.9996 88.5 66.4428 89.0354C66.8859 89.5672 67.1074 90.3556 67.1074 91.4006C67.1074 92.0948 67.0059 92.6782 66.8028 93.1509C66.5997 93.6236 66.3135 93.9818 65.9442 94.2255C65.5787 94.4655 65.1485 94.5855 64.6537 94.5855C64.1884 94.5855 63.8117 94.5006 63.5237 94.3307C63.2394 94.1572 63.016 93.9559 62.8535 93.727H62.7593L62.5211 94.4747H61.5463V85.856H62.8479ZM64.3435 89.2902C63.9742 89.2902 63.6806 89.3641 63.4628 89.5118C63.2486 89.6595 63.0935 89.881 62.9975 90.1765C62.9015 90.4682 62.8516 90.8393 62.8479 91.2898V91.4061C62.8479 92.0893 62.955 92.6118 63.1692 92.9737C63.3871 93.3355 63.7822 93.5165 64.3545 93.5165C64.8087 93.5165 65.1577 93.3337 65.4014 92.9681C65.6451 92.5989 65.767 92.0708 65.767 91.384C65.767 90.6897 65.6451 90.1672 65.4014 89.8164C65.1614 89.4656 64.8087 89.2902 64.3435 89.2902ZM69.9157 88.343V94.4747H68.614V88.343H69.9157ZM69.2732 85.9945C69.4726 85.9945 69.6443 86.048 69.7883 86.1551C69.936 86.2622 70.0099 86.4469 70.0099 86.709C70.0099 86.9675 69.936 87.1522 69.7883 87.2629C69.6443 87.37 69.4726 87.4236 69.2732 87.4236C69.0664 87.4236 68.891 87.37 68.747 87.2629C68.6067 87.1522 68.5365 86.9675 68.5365 86.709C68.5365 86.4469 68.6067 86.2622 68.747 86.1551C68.891 86.048 69.0664 85.9945 69.2732 85.9945ZM73.0896 94.4747H71.7824V85.856H73.0896V94.4747ZM77.3934 88.2267C77.9399 88.2267 78.4089 88.3394 78.8003 88.5646C79.1917 88.7899 79.4927 89.1093 79.7031 89.5229C79.9136 89.9364 80.0189 90.4313 80.0189 91.0073V91.7052H75.9255C75.9403 92.2997 76.0991 92.7576 76.4019 93.0789C76.7084 93.4002 77.1367 93.5608 77.6869 93.5608C78.0784 93.5608 78.4292 93.5239 78.7394 93.45C79.0532 93.3725 79.3763 93.2598 79.7087 93.1121V94.1701C79.4022 94.3141 79.0902 94.4193 78.7726 94.4858C78.455 94.5523 78.0747 94.5855 77.6316 94.5855C77.0297 94.5855 76.4998 94.4692 76.0419 94.2366C75.5877 94.0002 75.2313 93.6494 74.9728 93.1841C74.718 92.7189 74.5906 92.141 74.5906 91.4504C74.5906 90.7636 74.707 90.1801 74.9396 89.7001C75.1722 89.2201 75.499 88.8545 75.92 88.6034C76.341 88.3523 76.8321 88.2267 77.3934 88.2267ZM77.3934 89.2071C76.9835 89.2071 76.6512 89.3401 76.3964 89.6059C76.1453 89.8718 75.9976 90.2614 75.9532 90.7747H78.7449C78.7412 90.4682 78.6895 90.1968 78.5898 89.9604C78.4938 89.7241 78.3461 89.5395 78.1467 89.4065C77.951 89.2736 77.6999 89.2071 77.3934 89.2071ZM86.8374 88.2267C87.6129 88.2267 88.1981 88.3984 88.5933 88.7419C88.9921 89.0853 89.1915 89.6207 89.1915 90.3482V94.4747H88.2665L88.0172 93.6051H87.9729C87.7993 93.8267 87.6202 94.0095 87.4356 94.1535C87.251 94.2975 87.0368 94.4046 86.7931 94.4747C86.5531 94.5486 86.2595 94.5855 85.9124 94.5855C85.5468 94.5855 85.22 94.519 84.932 94.3861C84.6439 94.2495 84.4168 94.0427 84.2507 93.7657C84.0845 93.4888 84.0014 93.138 84.0014 92.7133C84.0014 92.0819 84.2359 91.6074 84.7049 91.2898C85.1775 90.9722 85.8902 90.7968 86.8429 90.7636L87.9064 90.7248V90.4036C87.9064 89.9789 87.8067 89.6761 87.6073 89.4952C87.4116 89.3142 87.1347 89.2237 86.7765 89.2237C86.47 89.2237 86.1727 89.2681 85.8847 89.3567C85.5967 89.4453 85.316 89.5542 85.0428 89.6835L84.6218 88.764C84.9209 88.6052 85.2606 88.476 85.641 88.3763C86.025 88.2766 86.4238 88.2267 86.8374 88.2267ZM87.9009 91.5446L87.1088 91.5723C86.4589 91.5944 86.0029 91.7052 85.7407 91.9046C85.4785 92.104 85.3474 92.3773 85.3474 92.7244C85.3474 93.0272 85.4379 93.2488 85.6188 93.3891C85.7998 93.5257 86.0379 93.594 86.3333 93.594C86.7839 93.594 87.1568 93.4666 87.4522 93.2118C87.7513 92.9533 87.9009 92.5748 87.9009 92.0763V91.5446ZM94.16 88.2267C94.8874 88.2267 95.4709 88.4926 95.9103 89.0243C96.3534 89.5561 96.575 90.3463 96.575 91.395C96.575 92.0893 96.4716 92.6746 96.2648 93.1509C96.0617 93.6236 95.7755 93.9818 95.4063 94.2255C95.0407 94.4655 94.6142 94.5855 94.1267 94.5855C93.8166 94.5855 93.547 94.5449 93.318 94.4637C93.0891 94.3824 92.8934 94.2772 92.7309 94.1479C92.5684 94.015 92.4318 93.871 92.321 93.7159H92.2435C92.2619 93.8636 92.2786 94.0279 92.2933 94.2089C92.3118 94.3861 92.321 94.5486 92.321 94.6963V97.1944H91.0138V88.343H92.0773L92.2601 89.1905H92.321C92.4355 89.017 92.574 88.8563 92.7364 88.7086C92.9026 88.5609 93.102 88.4446 93.3347 88.3597C93.571 88.271 93.8461 88.2267 94.16 88.2267ZM93.811 89.2902C93.4528 89.2902 93.1648 89.3622 92.9469 89.5062C92.7328 89.6466 92.5758 89.8589 92.4761 90.1432C92.3801 90.4276 92.3284 90.7839 92.321 91.2123V91.395C92.321 91.8492 92.3672 92.2351 92.4595 92.5527C92.5555 92.8666 92.7124 93.1066 92.9303 93.2728C93.1519 93.4352 93.451 93.5165 93.8276 93.5165C94.1452 93.5165 94.4074 93.4297 94.6142 93.2561C94.8247 93.0826 94.9816 92.8352 95.085 92.5139C95.1884 92.1927 95.2401 91.8142 95.2401 91.3784C95.2401 90.7174 95.1219 90.2042 94.8856 89.8386C94.6529 89.473 94.2948 89.2902 93.811 89.2902ZM101.228 88.2267C101.955 88.2267 102.539 88.4926 102.978 89.0243C103.421 89.5561 103.643 90.3463 103.643 91.395C103.643 92.0893 103.539 92.6746 103.333 93.1509C103.129 93.6236 102.843 93.9818 102.474 94.2255C102.108 94.4655 101.682 94.5855 101.195 94.5855C100.884 94.5855 100.615 94.5449 100.386 94.4637C100.157 94.3824 99.9612 94.2772 99.7987 94.1479C99.6362 94.015 99.4996 93.871 99.3888 93.7159H99.3113C99.3297 93.8636 99.3463 94.0279 99.3611 94.2089C99.3796 94.3861 99.3888 94.5486 99.3888 94.6963V97.1944H98.0816V88.343H99.1451L99.3279 89.1905H99.3888C99.5033 89.017 99.6417 88.8563 99.8042 88.7086C99.9704 88.5609 100.17 88.4446 100.402 88.3597C100.639 88.271 100.914 88.2267 101.228 88.2267ZM100.879 89.2902C100.521 89.2902 100.233 89.3622 100.015 89.5062C99.8005 89.6466 99.6436 89.8589 99.5439 90.1432C99.4479 90.4276 99.3962 90.7839 99.3888 91.2123V91.395C99.3888 91.8492 99.435 92.2351 99.5273 92.5527C99.6233 92.8666 99.7802 93.1066 99.9981 93.2728C100.22 93.4352 100.519 93.5165 100.895 93.5165C101.213 93.5165 101.475 93.4297 101.682 93.2561C101.892 93.0826 102.049 92.8352 102.153 92.5139C102.256 92.1927 102.308 91.8142 102.308 91.3784C102.308 90.7174 102.19 90.2042 101.953 89.8386C101.721 89.473 101.363 89.2902 100.879 89.2902ZM112.904 92.2702C112.904 92.7503 112.786 93.1638 112.549 93.5109C112.317 93.8581 111.981 94.1239 111.541 94.3086C111.106 94.4932 110.585 94.5855 109.979 94.5855C109.684 94.5855 109.401 94.5689 109.132 94.5357C108.862 94.5024 108.608 94.4544 108.368 94.3916C108.131 94.3252 107.915 94.2458 107.719 94.1535V92.9017C108.048 93.0457 108.416 93.1768 108.822 93.2949C109.228 93.4094 109.642 93.4666 110.062 93.4666C110.406 93.4666 110.69 93.4223 110.915 93.3337C111.144 93.2414 111.314 93.1121 111.425 92.946C111.536 92.7761 111.591 92.5785 111.591 92.3533C111.591 92.1133 111.527 91.9102 111.397 91.744C111.268 91.5778 111.072 91.4264 110.81 91.2898C110.552 91.1495 110.227 90.9999 109.835 90.8411C109.57 90.7341 109.315 90.6122 109.071 90.4756C108.831 90.3389 108.617 90.1783 108.428 89.9937C108.24 89.809 108.091 89.5912 107.98 89.3401C107.873 89.0853 107.819 88.7862 107.819 88.4427C107.819 87.9849 107.928 87.5934 108.146 87.2685C108.368 86.9435 108.678 86.6943 109.077 86.5207C109.479 86.3472 109.948 86.2604 110.483 86.2604C110.908 86.2604 111.307 86.3047 111.68 86.3933C112.057 86.4819 112.426 86.6075 112.788 86.77L112.367 87.839C112.034 87.7024 111.711 87.5934 111.397 87.5122C111.087 87.431 110.77 87.3903 110.445 87.3903C110.164 87.3903 109.926 87.4328 109.73 87.5177C109.534 87.6027 109.385 87.7227 109.281 87.8778C109.182 88.0292 109.132 88.2101 109.132 88.4206C109.132 88.6569 109.189 88.8563 109.304 89.0188C109.422 89.1776 109.603 89.3234 109.846 89.4564C110.094 89.5893 110.411 89.737 110.799 89.8995C111.246 90.0841 111.624 90.278 111.935 90.4811C112.249 90.6842 112.489 90.9279 112.655 91.2123C112.821 91.4929 112.904 91.8455 112.904 92.2702ZM116.776 88.2267C117.322 88.2267 117.791 88.3394 118.183 88.5646C118.574 88.7899 118.875 89.1093 119.086 89.5229C119.296 89.9364 119.401 90.4313 119.401 91.0073V91.7052H115.308C115.323 92.2997 115.481 92.7576 115.784 93.0789C116.091 93.4002 116.519 93.5608 117.069 93.5608C117.461 93.5608 117.812 93.5239 118.122 93.45C118.436 93.3725 118.759 93.2598 119.091 93.1121V94.1701C118.785 94.3141 118.473 94.4193 118.155 94.4858C117.837 94.5523 117.457 94.5855 117.014 94.5855C116.412 94.5855 115.882 94.4692 115.424 94.2366C114.97 94.0002 114.614 93.6494 114.355 93.1841C114.1 92.7189 113.973 92.141 113.973 91.4504C113.973 90.7636 114.089 90.1801 114.322 89.7001C114.555 89.2201 114.881 88.8545 115.302 88.6034C115.723 88.3523 116.214 88.2267 116.776 88.2267ZM116.776 89.2071C116.366 89.2071 116.034 89.3401 115.779 89.6059C115.528 89.8718 115.38 90.2614 115.336 90.7747H118.127C118.124 90.4682 118.072 90.1968 117.972 89.9604C117.876 89.7241 117.728 89.5395 117.529 89.4065C117.333 89.2736 117.082 89.2071 116.776 89.2071ZM123.976 88.2267C124.08 88.2267 124.192 88.2323 124.314 88.2433C124.436 88.2544 124.541 88.2692 124.63 88.2877L124.508 89.5062C124.431 89.4841 124.335 89.4675 124.22 89.4564C124.109 89.4453 124.01 89.4398 123.921 89.4398C123.688 89.4398 123.467 89.4785 123.256 89.5561C123.046 89.6299 122.859 89.7444 122.697 89.8995C122.534 90.0509 122.407 90.2411 122.315 90.47C122.222 90.699 122.176 90.9648 122.176 91.2676V94.4747H120.869V88.343H121.888L122.066 89.4232H122.126C122.248 89.2053 122.4 89.0059 122.581 88.8249C122.762 88.644 122.968 88.5 123.201 88.3929C123.437 88.2821 123.696 88.2267 123.976 88.2267ZM127.167 94.4747L124.835 88.343H126.214L127.477 91.9434C127.558 92.1723 127.632 92.4198 127.699 92.6856C127.765 92.9515 127.811 93.1749 127.837 93.3559H127.881C127.907 93.1675 127.957 92.9423 128.031 92.6801C128.105 92.4142 128.181 92.1687 128.258 91.9434L129.521 88.343H130.895L128.563 94.4747H127.167ZM133.127 88.343V94.4747H131.825V88.343H133.127ZM132.484 85.9945C132.684 85.9945 132.856 86.048 133 86.1551C133.147 86.2622 133.221 86.4469 133.221 86.709C133.221 86.9675 133.147 87.1522 133 87.2629C132.856 87.37 132.684 87.4236 132.484 87.4236C132.278 87.4236 132.102 87.37 131.958 87.2629C131.818 87.1522 131.748 86.9675 131.748 86.709C131.748 86.4469 131.818 86.2622 131.958 86.1551C132.102 86.048 132.278 85.9945 132.484 85.9945ZM137.464 94.5855C136.884 94.5855 136.382 94.4729 135.957 94.2476C135.533 94.0224 135.206 93.6771 134.977 93.2118C134.748 92.7466 134.634 92.1557 134.634 91.4394C134.634 90.6934 134.759 90.0841 135.01 89.6115C135.261 89.1388 135.608 88.7899 136.052 88.5646C136.498 88.3394 137.01 88.2267 137.586 88.2267C137.951 88.2267 138.282 88.2637 138.577 88.3375C138.876 88.4077 139.129 88.4944 139.336 88.5978L138.948 89.6392C138.723 89.5469 138.492 89.4693 138.256 89.4065C138.02 89.3438 137.793 89.3124 137.575 89.3124C137.217 89.3124 136.917 89.3918 136.677 89.5505C136.441 89.7093 136.264 89.9457 136.146 90.2595C136.031 90.5734 135.974 90.963 135.974 91.4283C135.974 91.8788 136.033 92.2591 136.151 92.5693C136.269 92.8758 136.445 93.1084 136.677 93.2672C136.91 93.4223 137.196 93.4999 137.536 93.4999C137.872 93.4999 138.173 93.4592 138.439 93.378C138.705 93.2968 138.956 93.1915 139.192 93.0623V94.1922C138.96 94.3252 138.71 94.423 138.444 94.4858C138.179 94.5523 137.852 94.5855 137.464 94.5855ZM143.075 88.2267C143.622 88.2267 144.09 88.3394 144.482 88.5646C144.873 88.7899 145.174 89.1093 145.385 89.5229C145.595 89.9364 145.7 90.4313 145.7 91.0073V91.7052H141.607C141.622 92.2997 141.781 92.7576 142.084 93.0789C142.39 93.4002 142.818 93.5608 143.369 93.5608C143.76 93.5608 144.111 93.5239 144.421 93.45C144.735 93.3725 145.058 93.2598 145.39 93.1121V94.1701C145.084 94.3141 144.772 94.4193 144.454 94.4858C144.137 94.5523 143.756 94.5855 143.313 94.5855C142.711 94.5855 142.181 94.4692 141.723 94.2366C141.269 94.0002 140.913 93.6494 140.654 93.1841C140.4 92.7189 140.272 92.141 140.272 91.4504C140.272 90.7636 140.389 90.1801 140.621 89.7001C140.854 89.2201 141.181 88.8545 141.602 88.6034C142.023 88.3523 142.514 88.2267 143.075 88.2267ZM143.075 89.2071C142.665 89.2071 142.333 89.3401 142.078 89.6059C141.827 89.8718 141.679 90.2614 141.635 90.7747H144.427C144.423 90.4682 144.371 90.1968 144.271 89.9604C144.175 89.7241 144.028 89.5395 143.828 89.4065C143.633 89.2736 143.381 89.2071 143.075 89.2071ZM151.289 92.7244C151.289 93.1269 151.192 93.4666 150.996 93.7436C150.8 94.0205 150.514 94.231 150.137 94.375C149.764 94.5154 149.306 94.5855 148.764 94.5855C148.335 94.5855 147.966 94.5541 147.656 94.4913C147.349 94.4323 147.059 94.3399 146.786 94.2144V93.09C147.078 93.2266 147.405 93.3448 147.767 93.4445C148.132 93.5442 148.477 93.594 148.802 93.594C149.231 93.594 149.539 93.5276 149.727 93.3946C149.916 93.258 150.01 93.0771 150.01 92.8518C150.01 92.7189 149.971 92.6007 149.894 92.4973C149.82 92.3902 149.679 92.2813 149.473 92.1705C149.269 92.056 148.97 91.9194 148.575 91.7606C148.188 91.6055 147.861 91.4504 147.595 91.2953C147.329 91.1402 147.128 90.9538 146.991 90.7359C146.854 90.5143 146.786 90.2318 146.786 89.8884C146.786 89.3456 147 88.9339 147.429 88.6532C147.861 88.3689 148.431 88.2267 149.14 88.2267C149.517 88.2267 149.871 88.2655 150.204 88.343C150.54 88.4169 150.868 88.5258 151.19 88.6698L150.78 89.6503C150.503 89.5284 150.224 89.4287 149.943 89.3511C149.666 89.2699 149.384 89.2293 149.096 89.2293C148.76 89.2293 148.503 89.281 148.326 89.3844C148.152 89.4878 148.066 89.6355 148.066 89.8275C148.066 89.9715 148.108 90.0934 148.193 90.1931C148.278 90.2928 148.424 90.3925 148.631 90.4922C148.841 90.5919 149.133 90.7156 149.506 90.8633C149.871 91.0036 150.187 91.1513 150.453 91.3064C150.723 91.4578 150.929 91.6443 151.073 91.8659C151.217 92.0874 151.289 92.3736 151.289 92.7244Z" fill="#231656"/>
<path d="M73.3011 130.475H64.7789V128.682L67.8392 125.588C68.7454 124.66 69.3374 124.018 69.6154 123.662C69.8933 123.301 70.0935 122.967 70.2158 122.661C70.3381 122.356 70.3992 122.039 70.3992 121.711C70.3992 121.222 70.263 120.857 69.9906 120.618C69.7238 120.379 69.3652 120.26 68.9149 120.26C68.4424 120.26 67.9838 120.368 67.539 120.585C67.0943 120.802 66.6301 121.11 66.1465 121.511L64.7456 119.851C65.346 119.34 65.8435 118.978 66.2382 118.767C66.6329 118.556 67.0637 118.395 67.5307 118.284C67.9977 118.167 68.5202 118.108 69.0984 118.108C69.86 118.108 70.5326 118.247 71.1164 118.525C71.7001 118.803 72.1531 119.192 72.4756 119.693C72.798 120.193 72.9592 120.766 72.9592 121.411C72.9592 121.972 72.8591 122.5 72.659 122.995C72.4644 123.484 72.1587 123.987 71.7418 124.504C71.3304 125.021 70.6021 125.758 69.557 126.714L67.9893 128.19V128.307H73.3011V130.475ZM82.9907 124.379C82.9907 126.508 82.6404 128.084 81.94 129.107C81.2451 130.13 80.1722 130.642 78.7212 130.642C77.3148 130.642 76.253 130.113 75.5359 129.057C74.8243 128.001 74.4685 126.442 74.4685 124.379C74.4685 122.228 74.816 120.643 75.5108 119.626C76.2057 118.603 77.2759 118.092 78.7212 118.092C80.1277 118.092 81.1895 118.625 81.9066 119.693C82.6293 120.76 82.9907 122.322 82.9907 124.379ZM77.0285 124.379C77.0285 125.875 77.1564 126.947 77.4121 127.598C77.6733 128.243 78.1097 128.565 78.7212 128.565C79.3216 128.565 79.7552 128.237 80.0221 127.581C80.2889 126.925 80.4223 125.858 80.4223 124.379C80.4223 122.884 80.2861 121.811 80.0137 121.16C79.7469 120.504 79.3161 120.176 78.7212 120.176C78.1153 120.176 77.6817 120.504 77.4204 121.16C77.1591 121.811 77.0285 122.884 77.0285 124.379ZM92.8137 130.475H84.2915V128.682L87.3518 125.588C88.2579 124.66 88.85 124.018 89.1279 123.662C89.4059 123.301 89.606 122.967 89.7283 122.661C89.8506 122.356 89.9118 122.039 89.9118 121.711C89.9118 121.222 89.7756 120.857 89.5032 120.618C89.2363 120.379 88.8778 120.26 88.4275 120.26C87.955 120.26 87.4963 120.368 87.0516 120.585C86.6069 120.802 86.1427 121.11 85.659 121.511L84.2581 119.851C84.8585 119.34 85.3561 118.978 85.7508 118.767C86.1455 118.556 86.5763 118.395 87.0433 118.284C87.5102 118.167 88.0328 118.108 88.6109 118.108C89.3725 118.108 90.0452 118.247 90.6289 118.525C91.2126 118.803 91.6657 119.192 91.9881 119.693C92.3105 120.193 92.4718 120.766 92.4718 121.411C92.4718 121.972 92.3717 122.5 92.1716 122.995C91.977 123.484 91.6712 123.987 91.2543 124.504C90.8429 125.021 90.1147 125.758 89.0696 126.714L87.5019 128.19V128.307H92.8137V130.475ZM102.57 130.475H94.0478V128.682L97.1081 125.588C98.0142 124.66 98.6063 124.018 98.8842 123.662C99.1622 123.301 99.3623 122.967 99.4846 122.661C99.6069 122.356 99.6681 122.039 99.6681 121.711C99.6681 121.222 99.5319 120.857 99.2595 120.618C98.9926 120.379 98.6341 120.26 98.1838 120.26C97.7112 120.26 97.2526 120.368 96.8079 120.585C96.3632 120.802 95.899 121.11 95.4153 121.511L94.0144 119.851C94.6148 119.34 95.1124 118.978 95.5071 118.767C95.9018 118.556 96.3326 118.395 96.7996 118.284C97.2665 118.167 97.7891 118.108 98.3672 118.108C99.1288 118.108 99.8015 118.247 100.385 118.525C100.969 118.803 101.422 119.192 101.744 119.693C102.067 120.193 102.228 120.766 102.228 121.411C102.228 121.972 102.128 122.5 101.928 122.995C101.733 123.484 101.428 123.987 101.011 124.504C100.599 125.021 99.871 125.758 98.8259 126.714L97.2582 128.19V128.307H102.57V130.475ZM120.156 124.362C120.156 125.797 119.901 127 119.389 127.973C118.883 128.94 118.138 129.649 117.154 130.099L120.09 133.377H116.779L114.544 130.642H114.353C112.485 130.642 111.05 130.099 110.05 129.015C109.049 127.931 108.549 126.375 108.549 124.346C108.549 122.317 109.049 120.768 110.05 119.701C111.056 118.628 112.496 118.092 114.369 118.092C116.243 118.092 117.674 118.631 118.664 119.709C119.659 120.788 120.156 122.339 120.156 124.362ZM111.259 124.362C111.259 125.724 111.517 126.75 112.034 127.439C112.551 128.129 113.324 128.473 114.353 128.473C116.415 128.473 117.446 127.103 117.446 124.362C117.446 121.616 116.421 120.243 114.369 120.243C113.341 120.243 112.565 120.591 112.043 121.285C111.52 121.975 111.259 123 111.259 124.362ZM130.354 130.475H121.832V128.682L124.893 125.588C125.799 124.66 126.391 124.018 126.669 123.662C126.947 123.301 127.147 122.967 127.269 122.661C127.391 122.356 127.453 122.039 127.453 121.711C127.453 121.222 127.316 120.857 127.044 120.618C126.777 120.379 126.419 120.26 125.968 120.26C125.496 120.26 125.037 120.368 124.592 120.585C124.148 120.802 123.684 121.11 123.2 121.511L121.799 119.851C122.399 119.34 122.897 118.978 123.292 118.767C123.686 118.556 124.117 118.395 124.584 118.284C125.051 118.167 125.574 118.108 126.152 118.108C126.913 118.108 127.586 118.247 128.17 118.525C128.753 118.803 129.207 119.192 129.529 119.693C129.851 120.193 130.013 120.766 130.013 121.411C130.013 121.972 129.913 122.5 129.712 122.995C129.518 123.484 129.212 123.987 128.795 124.504C128.384 125.021 127.656 125.758 126.61 126.714L125.043 128.19V128.307H130.354V130.475ZM80.371 146.475L79.6036 144.296H76.6039L75.8365 146.475H74.4788L77.3981 138.597H78.8255L81.7394 146.475H80.371ZM79.2709 143.191L78.525 141.044C78.4964 140.951 78.4552 140.821 78.4016 140.652C78.3479 140.481 78.2942 140.307 78.2406 140.132C78.1869 139.953 78.1422 139.803 78.1064 139.681C78.0706 139.828 78.0259 139.992 77.9723 140.175C77.9222 140.354 77.8721 140.522 77.822 140.679C77.7755 140.837 77.7397 140.958 77.7147 141.044L76.9634 143.191H79.2709ZM92.0533 138.629L90.0034 146.475H88.5974L87.2881 141.774C87.2559 141.659 87.2201 141.523 87.1807 141.366C87.1414 141.209 87.102 141.048 87.0627 140.883C87.0269 140.719 86.9947 140.568 86.9661 140.432C86.941 140.293 86.9231 140.186 86.9124 140.11C86.9053 140.186 86.8892 140.291 86.8641 140.427C86.8391 140.563 86.8087 140.713 86.7729 140.878C86.7407 141.039 86.7049 141.2 86.6656 141.361C86.6262 141.518 86.5904 141.658 86.5582 141.779L85.2703 146.475H83.8698L81.8252 138.629H83.1185L84.2508 143.228C84.2865 143.375 84.3223 143.534 84.3581 143.706C84.3974 143.874 84.4332 144.044 84.4654 144.216C84.5012 144.387 84.5334 144.555 84.562 144.72C84.5906 144.881 84.6139 145.028 84.6318 145.16C84.6497 145.024 84.6729 144.874 84.7015 144.709C84.7301 144.541 84.7606 144.371 84.7928 144.199C84.8285 144.024 84.8643 143.856 84.9001 143.695C84.9394 143.534 84.9788 143.389 85.0181 143.26L86.2953 138.629H87.551L88.855 143.276C88.8943 143.409 88.9319 143.557 88.9677 143.722C89.007 143.886 89.0446 144.055 89.0804 144.226C89.1161 144.398 89.1483 144.564 89.177 144.725C89.2056 144.886 89.2288 145.031 89.2467 145.16C89.2718 144.985 89.304 144.784 89.3433 144.559C89.3827 144.334 89.4274 144.105 89.4775 143.872C89.5276 143.64 89.5776 143.425 89.6277 143.228L90.7546 138.629H92.0533ZM98.0259 146.475L97.2585 144.296H94.2588L93.4914 146.475H92.1338L95.053 138.597H96.4804L99.3943 146.475H98.0259ZM96.9258 143.191L96.1799 141.044C96.1513 140.951 96.1101 140.821 96.0565 140.652C96.0028 140.481 95.9492 140.307 95.8955 140.132C95.8418 139.953 95.7971 139.803 95.7613 139.681C95.7256 139.828 95.6808 139.992 95.6272 140.175C95.5771 140.354 95.527 140.522 95.4769 140.679C95.4304 140.837 95.3946 140.958 95.3696 141.044L94.6183 143.191H96.9258ZM102.635 138.629C103.312 138.629 103.87 138.712 104.31 138.876C104.753 139.041 105.082 139.291 105.297 139.627C105.515 139.964 105.624 140.391 105.624 140.91C105.624 141.296 105.553 141.625 105.41 141.897C105.267 142.169 105.079 142.395 104.846 142.573C104.614 142.752 104.365 142.895 104.1 143.003L106.327 146.475H104.873L102.979 143.33H101.718V146.475H100.43V138.629H102.635ZM102.55 139.703H101.718V142.268H102.609C103.206 142.268 103.639 142.157 103.907 141.935C104.179 141.713 104.315 141.386 104.315 140.953C104.315 140.499 104.17 140.177 103.88 139.987C103.594 139.797 103.151 139.703 102.55 139.703ZM113.819 142.477C113.819 143.361 113.654 144.099 113.325 144.693C112.996 145.283 112.518 145.729 111.892 146.029C111.266 146.326 110.511 146.475 109.628 146.475H107.449V138.629H109.864C110.676 138.629 111.377 138.776 111.967 139.069C112.558 139.359 113.014 139.79 113.336 140.363C113.658 140.931 113.819 141.636 113.819 142.477ZM112.477 142.514C112.477 141.871 112.375 141.341 112.171 140.926C111.971 140.511 111.674 140.203 111.28 140.003C110.891 139.799 110.409 139.697 109.837 139.697H108.737V145.396H109.649C110.597 145.396 111.306 145.155 111.774 144.672C112.243 144.189 112.477 143.47 112.477 142.514ZM120.038 144.339C120.038 144.804 119.924 145.205 119.695 145.541C119.469 145.877 119.144 146.135 118.718 146.314C118.296 146.493 117.792 146.582 117.205 146.582C116.919 146.582 116.645 146.566 116.384 146.534C116.123 146.502 115.876 146.455 115.643 146.394C115.414 146.33 115.205 146.253 115.015 146.163V144.951C115.334 145.09 115.69 145.217 116.083 145.332C116.477 145.443 116.877 145.498 117.285 145.498C117.618 145.498 117.893 145.455 118.112 145.369C118.334 145.28 118.498 145.155 118.605 144.994C118.713 144.829 118.766 144.638 118.766 144.419C118.766 144.187 118.704 143.99 118.579 143.829C118.453 143.668 118.264 143.522 118.01 143.389C117.759 143.253 117.445 143.108 117.065 142.954C116.808 142.851 116.561 142.733 116.325 142.6C116.092 142.468 115.885 142.312 115.702 142.133C115.52 141.955 115.375 141.743 115.268 141.5C115.164 141.253 115.112 140.964 115.112 140.631C115.112 140.187 115.218 139.808 115.429 139.493C115.643 139.178 115.944 138.937 116.33 138.769C116.72 138.601 117.174 138.517 117.693 138.517C118.105 138.517 118.491 138.56 118.852 138.645C119.217 138.731 119.575 138.853 119.926 139.01L119.518 140.046C119.196 139.914 118.883 139.808 118.579 139.729C118.278 139.651 117.97 139.611 117.656 139.611C117.384 139.611 117.153 139.652 116.963 139.735C116.774 139.817 116.629 139.933 116.529 140.084C116.432 140.23 116.384 140.406 116.384 140.609C116.384 140.838 116.439 141.032 116.55 141.189C116.665 141.343 116.84 141.484 117.076 141.613C117.316 141.742 117.623 141.885 117.999 142.042C118.432 142.221 118.799 142.409 119.099 142.606C119.403 142.802 119.636 143.039 119.797 143.314C119.958 143.586 120.038 143.928 120.038 144.339Z" fill="#231656"/>
<path d="M54.3048 137.376C53.8633 136.738 53.4954 136.199 53.2256 135.855C53.0784 135.684 52.9803 135.536 52.9067 135.438C52.8331 135.34 52.8086 135.291 52.8086 135.291C52.8086 135.291 52.6859 135.512 52.4897 135.904C52.318 136.297 52.0727 136.836 51.8029 137.523C51.2878 138.897 50.7481 140.81 50.6009 142.944C50.5028 144.023 50.6255 145.078 50.8217 146.158C51.0425 147.237 51.4104 148.316 51.95 149.322C52.0972 149.567 52.2444 149.812 52.3916 150.082C52.5633 150.327 52.7595 150.548 52.9312 150.769C53.3237 151.211 53.7652 151.628 54.2558 152.02C55.2369 152.805 56.4143 153.443 57.8125 153.909C59.5786 152.388 59.9711 150.45 59.6767 148.414C59.5295 147.409 59.2106 146.378 58.7691 145.373C58.671 145.127 58.5484 144.882 58.4257 144.612C58.3276 144.367 58.205 144.097 58.1068 143.852C57.8616 143.337 57.6163 142.846 57.371 142.356C56.8559 141.374 56.2672 140.467 55.7275 139.657C55.2124 138.799 54.7464 138.014 54.3048 137.376Z" fill="#FF5D45"/>
<path d="M46.4838 133.23L46.312 132.47C46.0668 131.464 45.7724 130.507 45.4535 129.649C45.3064 129.232 45.1347 128.815 44.9875 128.422C44.8648 128.03 44.7422 127.662 44.6195 127.319C44.129 125.969 43.7365 125.111 43.7365 125.111C43.7365 125.111 43.0742 125.847 42.2402 127.098C41.8232 127.711 41.3572 128.471 40.9157 129.305C40.4741 130.139 40.0326 131.096 39.7628 132.077C39.493 133.058 39.2967 134.089 39.2231 135.168C39.1986 135.708 39.1986 136.223 39.2477 136.762C39.2722 137.032 39.2967 137.302 39.3458 137.572C39.3948 137.817 39.4684 138.087 39.5665 138.332C39.91 139.338 40.4251 140.319 41.1609 141.227C41.5289 141.668 41.9459 142.11 42.461 142.478C42.9761 142.845 43.5648 143.189 44.2025 143.483C46.2385 142.257 46.9743 140.466 47.097 138.553C47.1951 137.572 47.146 136.542 46.9743 135.511C46.9007 134.996 46.7781 134.506 46.6555 133.99C46.6309 133.721 46.5573 133.475 46.4838 133.23Z" fill="#FF5D45"/>
<path d="M31.7657 130.777C32.1582 131.194 32.6242 131.611 33.1393 131.979C35.347 131.12 36.5244 129.526 37.1131 127.711C37.2602 127.269 37.3829 126.779 37.5055 126.313C37.6036 125.822 37.7018 125.331 37.7508 124.841C37.8735 123.835 37.8489 122.854 37.8244 121.897C37.8489 120.916 37.7999 119.959 37.7263 119.076C37.6527 118.193 37.5055 117.433 37.481 116.722C37.3583 115.348 37.1621 114.465 37.1621 114.465C37.1621 114.465 36.3527 115.078 35.2734 116.157C34.7092 116.697 34.096 117.335 33.4828 118.071C33.1639 118.439 32.845 118.831 32.5752 119.248C32.2808 119.665 32.011 120.082 31.7657 120.524C31.2506 121.407 30.8091 122.388 30.4902 123.369C30.3185 123.86 30.1959 124.375 30.0977 124.89C30.0487 125.405 30.0242 125.896 30.0487 126.411C30.0977 127.416 30.343 128.447 30.8336 129.403C31.0298 129.894 31.3733 130.335 31.7657 130.777Z" fill="#FF5D45"/>
<path d="M23.5722 118.047C23.842 118.513 24.1854 118.954 24.5778 119.396C26.9081 118.905 28.4044 117.556 29.4101 115.937C29.5327 115.741 29.6554 115.52 29.778 115.324C29.9007 115.103 30.0233 114.882 30.1214 114.662C30.3422 114.22 30.5384 113.754 30.7101 113.288C31.0535 112.356 31.2988 111.399 31.4705 110.443C31.6913 109.486 31.8875 108.554 31.9856 107.695C32.0592 107.254 32.0837 106.861 32.1328 106.469C32.1573 106.077 32.1819 105.709 32.2309 105.365C32.4026 103.992 32.4272 103.109 32.4272 103.109C32.4272 103.109 31.5196 103.599 30.2441 104.507C29.6063 104.948 28.8704 105.488 28.11 106.126C27.3496 106.763 26.6383 107.475 25.9269 108.26C25.2401 109.045 24.5778 109.903 24.0382 110.835C23.7684 111.301 23.5231 111.767 23.3269 112.233C23.1552 112.699 23.008 113.19 22.9099 113.681C22.7136 114.662 22.7136 115.643 22.9344 116.624C23.0816 117.115 23.3023 117.581 23.5722 118.047Z" fill="#FF5D45"/>
<path d="M25.4611 102.446C26.0988 101.735 26.7121 100.901 27.2272 100.018C27.7423 99.1593 28.1593 98.2272 28.5272 97.3441C29.2876 95.529 29.8763 93.7629 30.1952 92.4383C30.5877 91.1138 30.7594 90.2062 30.7594 90.2062C30.7594 90.2062 29.8027 90.5986 28.4291 91.3345C27.7423 91.7024 26.9328 92.1685 26.1234 92.6836C25.3139 93.2232 24.4799 93.8365 23.6705 94.5233C22.0515 95.8969 20.4817 97.5649 19.7703 99.38C19.3779 100.288 19.1816 101.244 19.1816 102.225C19.2062 103.182 19.5496 104.163 20.1137 105.095C22.4195 104.973 24.1365 103.893 25.4611 102.446Z" fill="#FF5D45"/>
<path d="M22.4192 90.1331C22.7871 89.8142 23.155 89.4708 23.4984 89.1029C23.8418 88.735 24.1852 88.3425 24.5041 87.95C25.1419 87.1406 25.706 86.3066 26.1966 85.4481C26.4419 85.0311 26.6627 84.6141 26.8834 84.1725C27.1042 83.731 27.325 83.314 27.5212 82.897C27.9137 82.063 28.2325 81.3026 28.4778 80.6404C28.9684 79.3158 29.2628 78.4327 29.2628 78.4327C29.2628 78.4327 28.2816 78.7516 26.8834 79.4139C25.4853 80.0517 23.6456 81.0083 21.8795 82.2347C20.9965 82.848 20.1379 83.5348 19.353 84.2707C18.5926 85.0065 17.9303 85.7915 17.4152 86.6254C16.9001 87.4594 16.5322 88.367 16.385 89.2991C16.2869 90.2312 16.385 91.1879 16.7775 92.169C19.0587 92.2426 20.8983 91.4086 22.4192 90.1331Z" fill="#FF5D45"/>
<path d="M15.8197 78.3099C17.9537 78.5797 19.8425 77.8929 21.4369 76.74C22.2463 76.1758 22.9822 75.489 23.6445 74.7286C24.3558 73.9927 24.9691 73.2078 25.5332 72.4229C26.0974 71.6379 26.5634 70.8285 27.054 70.0926C27.5201 69.3567 27.9125 68.6945 28.2314 68.1058C28.5503 67.5171 28.7956 67.0265 28.9673 66.6831C29.139 66.3397 29.2371 66.1434 29.2371 66.1434C29.2371 66.1434 28.9918 66.1925 28.5748 66.3151C28.1333 66.4133 27.5691 66.6095 26.8578 66.8548C25.4596 67.3454 23.5709 68.0812 21.7312 69.1114C21.2652 69.3567 20.8236 69.6511 20.3576 69.9209C19.9161 70.2153 19.4991 70.5341 19.1066 70.853C18.2971 71.5153 17.5858 72.2266 16.9971 73.0116C15.8197 74.5814 15.3291 76.3966 15.8197 78.3099Z" fill="#FF5D45"/>
<path d="M23.0076 62.1203C24.6266 61.1636 26.221 59.8391 27.4965 58.5145C27.8153 58.1711 28.1097 57.8522 28.404 57.5088C28.7229 57.1899 29.0173 56.871 29.2871 56.5767C29.8267 55.9635 30.3173 55.3748 30.6852 54.8842C31.0532 54.3936 31.3966 53.9766 31.6174 53.7068C31.8381 53.4124 31.9608 53.2653 31.9608 53.2653C31.9608 53.2653 31.0041 53.3388 29.5324 53.6087C28.0852 53.8785 26.221 54.3445 24.3077 55.1049C23.3511 55.4729 22.3944 55.9389 21.5114 56.454C20.6529 56.9937 19.8679 57.6069 19.2056 58.2937C18.8622 58.6371 18.5679 59.0051 18.2981 59.373C18.0282 59.7409 17.8075 60.1334 17.6603 60.5504C17.366 61.3844 17.2433 62.2674 17.3905 63.1995C19.4509 63.592 21.3397 63.0769 23.0076 62.1203Z" fill="#FF5D45"/>
<path d="M36.2053 42.2517C35.4939 42.2762 34.6354 42.3252 33.7278 42.3988C32.7957 42.4969 31.8636 42.6441 30.8825 42.8649C29.9013 43.0856 28.8956 43.3555 27.939 43.7234C27.4484 43.8951 26.9823 44.0913 26.5163 44.3366C26.0748 44.5574 25.6578 44.8272 25.2653 45.097C23.72 46.2008 22.4935 47.6235 22.4199 49.4387C24.2596 50.101 26.1483 49.8557 27.8899 49.2424C29.7296 48.6292 31.4466 47.6235 32.9674 46.5688C34.5863 45.5631 35.8864 44.4593 36.8921 43.6498C37.9223 42.8403 38.5355 42.3007 38.5355 42.3007C38.5355 42.3007 37.6525 42.2026 36.2053 42.2517Z" fill="#FF5D45"/>
<path d="M45.3549 31.655C43.9567 31.5324 42.0434 31.4588 40.1056 31.6305C38.1433 31.8022 36.0338 32.1947 34.2432 33.0041C32.5507 33.8381 31.0789 35.0155 30.4902 36.6835C31.2752 37.125 32.1092 37.3703 32.9922 37.4684C33.8998 37.5665 34.8319 37.4929 35.764 37.3458C36.6961 37.1741 37.6282 36.9288 38.5603 36.5854C39.4679 36.2665 40.3509 35.874 41.2585 35.4816C43.0491 34.6966 44.5454 33.7891 45.7228 33.1022C46.9002 32.44 47.6361 31.9494 47.6361 31.9494C47.6361 31.9494 46.753 31.7777 45.3549 31.655Z" fill="#FF5D45"/>
<path d="M44.0047 21.868C42.3367 22.6529 40.8895 23.8058 40.3008 25.4247C43.2197 27.1908 47.3897 25.8662 50.7256 24.2228C52.4427 23.3888 54.0125 22.4812 55.1163 21.7698C56.2447 21.0585 56.9315 20.5434 56.9315 20.5434C56.9315 20.5434 53.522 20.0773 49.6709 20.4943C47.7331 20.666 45.6727 21.0585 44.0047 21.868Z" fill="#FF5D45"/>
<path d="M135.079 153.908C136.477 153.442 137.655 152.78 138.636 151.995C139.127 151.602 139.568 151.185 139.961 150.744C140.157 150.523 140.353 150.302 140.5 150.057C140.672 149.812 140.795 149.566 140.942 149.297C141.481 148.291 141.849 147.212 142.07 146.132C142.266 145.053 142.413 143.998 142.291 142.919C142.144 140.785 141.604 138.872 141.089 137.498C140.819 136.811 140.574 136.247 140.402 135.855C140.206 135.462 140.083 135.241 140.083 135.241C140.083 135.241 140.059 135.29 139.985 135.389C139.911 135.487 139.813 135.634 139.666 135.806C139.396 136.173 139.004 136.689 138.587 137.326C138.145 137.964 137.655 138.749 137.164 139.608C136.6 140.442 136.036 141.349 135.521 142.306C135.251 142.796 135.006 143.287 134.785 143.802C134.662 144.047 134.564 144.317 134.442 144.562C134.319 144.808 134.196 145.053 134.098 145.323C133.657 146.328 133.338 147.359 133.191 148.364C132.921 150.449 133.313 152.412 135.079 153.908Z" fill="#FF5D45"/>
<path d="M150.685 127.122C149.851 125.895 149.189 125.135 149.189 125.135C149.189 125.135 148.772 125.969 148.306 127.343C148.183 127.686 148.061 128.054 147.938 128.446C147.791 128.839 147.619 129.231 147.472 129.673C147.153 130.531 146.859 131.488 146.613 132.494L146.442 133.254C146.368 133.499 146.294 133.745 146.245 133.99C146.123 134.48 146.025 134.996 145.927 135.511C145.755 136.516 145.706 137.547 145.804 138.552C145.951 140.49 146.687 142.256 148.698 143.483C149.336 143.188 149.9 142.845 150.44 142.477C150.955 142.109 151.347 141.667 151.74 141.226C152.476 140.343 153.015 139.362 153.334 138.332C153.408 138.086 153.482 137.816 153.555 137.571C153.604 137.301 153.629 137.031 153.653 136.762C153.702 136.222 153.702 135.682 153.678 135.167C153.629 134.113 153.432 133.058 153.138 132.077C152.868 131.12 152.427 130.139 151.985 129.305C151.568 128.471 151.102 127.735 150.685 127.122Z" fill="#FF5D45"/>
<path d="M161.185 120.524C160.915 120.082 160.646 119.641 160.376 119.248C160.106 118.831 159.763 118.439 159.468 118.071C158.855 117.335 158.217 116.673 157.678 116.157C156.574 115.103 155.764 114.465 155.764 114.465C155.764 114.465 155.593 115.348 155.445 116.722C155.421 117.433 155.274 118.193 155.2 119.076C155.127 119.959 155.078 120.892 155.102 121.897C155.078 122.854 155.053 123.86 155.176 124.841C155.225 125.331 155.323 125.822 155.421 126.313C155.544 126.803 155.666 127.269 155.813 127.711C156.402 129.501 157.579 131.096 159.787 131.979C160.327 131.611 160.768 131.194 161.185 130.777C161.578 130.36 161.921 129.894 162.142 129.428C162.608 128.471 162.853 127.465 162.927 126.435C162.951 125.92 162.951 125.429 162.878 124.914C162.78 124.399 162.657 123.884 162.485 123.394C162.142 122.363 161.7 121.407 161.185 120.524Z" fill="#FF5D45"/>
<path d="M163.51 115.937C164.516 117.556 166.012 118.905 168.343 119.396C168.76 118.954 169.078 118.513 169.348 118.047C169.618 117.581 169.839 117.115 169.937 116.624C170.158 115.643 170.133 114.637 169.962 113.68C169.863 113.19 169.741 112.699 169.569 112.233C169.373 111.767 169.128 111.277 168.858 110.835C168.318 109.927 167.68 109.069 166.969 108.284C166.258 107.499 165.571 106.788 164.786 106.15C164.025 105.512 163.29 104.973 162.652 104.531C161.376 103.624 160.469 103.133 160.469 103.133C160.469 103.133 160.493 104.016 160.64 105.39C160.69 105.733 160.714 106.101 160.763 106.493C160.812 106.886 160.837 107.303 160.91 107.72C161.033 108.578 161.205 109.511 161.425 110.467C161.597 111.399 161.842 112.356 162.186 113.288C162.358 113.754 162.554 114.22 162.774 114.662C162.897 114.882 162.995 115.103 163.118 115.324C163.265 115.52 163.388 115.741 163.51 115.937Z" fill="#FF5D45"/>
<path d="M173.759 102.25C173.759 101.293 173.539 100.337 173.171 99.4292C172.459 97.6141 170.889 95.9216 169.271 94.5725C168.461 93.8857 167.603 93.2724 166.818 92.7328C166.008 92.1932 165.199 91.7271 164.512 91.3592C163.138 90.6233 162.182 90.2308 162.182 90.2308C162.182 90.2308 162.353 91.1139 162.746 92.463C163.065 93.7876 163.629 95.5536 164.414 97.3688C164.757 98.2764 165.199 99.184 165.714 100.042C166.229 100.901 166.842 101.735 167.48 102.471C168.78 103.918 170.522 104.997 172.827 105.145C173.391 104.188 173.71 103.207 173.759 102.25Z" fill="#FF5D45"/>
<path d="M176.516 89.274C176.394 88.3419 176.001 87.4588 175.486 86.6003C174.971 85.7663 174.309 84.9569 173.548 84.2455C172.788 83.5096 171.905 82.8228 171.022 82.2096C169.256 80.9831 167.416 80.0265 166.018 79.3888C164.62 78.751 163.639 78.4076 163.639 78.4076C163.639 78.4076 163.933 79.2661 164.424 80.6152C164.669 81.2775 165.012 82.0624 165.38 82.8719C165.576 83.2889 165.773 83.7059 166.018 84.1474C166.239 84.5644 166.46 84.9814 166.705 85.4229C167.195 86.2814 167.76 87.1399 168.397 87.9249C168.716 88.3173 169.06 88.7098 169.403 89.0777C169.746 89.4457 170.09 89.7891 170.482 90.108C172.003 91.3835 173.843 92.2175 176.075 92.1194C176.492 91.1627 176.615 90.2061 176.516 89.274Z" fill="#FF5D45"/>
<path d="M175.899 73.0116C175.31 72.2266 174.574 71.5153 173.79 70.853C173.397 70.5341 172.98 70.2153 172.539 69.9209C172.097 69.6266 171.631 69.3567 171.189 69.1114C169.35 68.0812 167.486 67.3454 166.063 66.8548C165.352 66.6095 164.763 66.4378 164.346 66.3151C163.904 66.217 163.684 66.1434 163.684 66.1434C163.684 66.1434 163.782 66.3397 163.953 66.6831C164.125 67.0265 164.37 67.5171 164.665 68.1058C164.984 68.6945 165.376 69.3813 165.842 70.0926C166.333 70.804 166.774 71.6379 167.363 72.4229C167.927 73.2078 168.565 74.0173 169.276 74.7286C169.963 75.4645 170.674 76.1513 171.484 76.74C173.078 77.8929 174.967 78.5797 177.101 78.3099C177.592 76.3966 177.101 74.5814 175.899 73.0116Z" fill="#FF5D45"/>
<path d="M174.594 59.3731C174.325 59.0052 174.03 58.6372 173.687 58.2938C173.024 57.607 172.215 56.9938 171.381 56.4542C170.498 55.9145 169.541 55.473 168.585 55.1051C166.671 54.3447 164.807 53.8541 163.36 53.6088C161.913 53.339 160.932 53.2654 160.932 53.2654C160.932 53.2654 161.054 53.4371 161.275 53.7069C161.496 53.9767 161.839 54.3937 162.207 54.8843C162.6 55.3749 163.066 55.9636 163.605 56.5768C163.875 56.8712 164.169 57.2146 164.488 57.5089C164.783 57.8523 165.077 58.1712 165.396 58.5146C166.671 59.8637 168.266 61.1883 169.885 62.1449C171.553 63.077 173.441 63.6167 175.477 63.2242C175.625 62.2921 175.502 61.409 175.208 60.575C175.085 60.1335 174.864 59.7411 174.594 59.3731Z" fill="#FF5D45"/>
<path d="M167.656 45.0723C167.264 44.8025 166.871 44.5327 166.405 44.3119C165.939 44.0912 165.473 43.8949 164.982 43.6987C164.026 43.3308 163.02 43.0609 162.039 42.8402C161.058 42.6194 160.126 42.4722 159.194 42.3741C158.261 42.276 157.427 42.2269 156.716 42.2269C155.293 42.1779 154.361 42.2515 154.361 42.2515C154.361 42.2515 154.975 42.8156 156.005 43.6006C157.01 44.41 158.311 45.4893 159.929 46.5195C161.426 47.5743 163.143 48.58 165.007 49.1932C166.773 49.831 168.637 50.0517 170.477 49.3894C170.428 47.5988 169.177 46.1761 167.656 45.0723Z" fill="#FF5D45"/>
<path d="M158.679 32.9797C156.888 32.1948 154.779 31.7778 152.816 31.6061C150.879 31.4344 148.941 31.508 147.567 31.6306C146.194 31.7533 145.311 31.9004 145.311 31.9004C145.311 31.9004 146.046 32.391 147.224 33.0533C148.401 33.7401 149.897 34.6477 151.688 35.4326C152.596 35.8251 153.479 36.2176 154.386 36.5364C155.294 36.8553 156.251 37.1251 157.183 37.2968C158.115 37.4685 159.047 37.5176 159.954 37.4195C160.837 37.3214 161.671 37.1006 162.456 36.6345C161.819 35.0156 160.371 33.8137 158.679 32.9797Z" fill="#FF5D45"/>
<path d="M142.194 24.1983C145.53 25.8663 149.7 27.1664 152.619 25.4003C152.006 23.7814 150.583 22.653 148.915 21.8436C147.247 21.0341 145.187 20.6416 143.273 20.4454C139.422 20.0529 135.988 20.4945 135.988 20.4945C135.988 20.4945 136.675 21.0096 137.803 21.7209C138.907 22.4568 140.477 23.3889 142.194 24.1983Z" fill="#FF5D45"/>
<path d="M178.719 106.861C180.828 107.229 182.815 106.665 184.63 105.463C185.612 104.85 186.421 104.04 187.23 103.157C188.015 102.274 188.751 101.293 189.414 100.287C190.665 98.3006 191.523 96.1911 192.136 94.6212C192.676 93.0513 192.921 91.9721 192.921 91.9721C192.921 91.9721 191.94 92.4136 190.493 93.1985C189.782 93.591 188.972 94.057 188.04 94.5967C187.132 95.1363 186.176 95.7495 185.219 96.4118C183.33 97.7364 181.564 99.2817 180.191 101.023C180.117 101.097 180.068 101.195 180.019 101.269C180.681 98.2024 181.221 95.0872 181.638 91.9721C183.404 91.8985 184.949 91.1626 186.274 90.0343C186.666 89.6908 187.059 89.2984 187.427 88.9059C187.77 88.4889 188.089 88.0719 188.408 87.6059C189.021 86.6983 189.561 85.7171 190.027 84.7114C190.248 84.2209 190.468 83.7057 190.665 83.2152C190.836 82.7246 191.008 82.2585 191.155 81.7925C191.449 80.8604 191.695 80.0019 191.866 79.2415C192.234 77.7452 192.333 76.7395 192.333 76.7395C192.333 76.7395 191.449 77.2301 190.125 78.0395C188.8 78.849 187.083 80.0264 185.464 81.4245C184.655 82.1114 183.87 82.8718 183.159 83.6812C182.864 84.0246 182.57 84.368 182.3 84.7114C182.447 82.0868 182.496 79.4377 182.398 76.8131C183.649 76.4697 184.729 75.7829 185.661 74.8262C186.347 74.1149 186.961 73.2809 187.476 72.3978C187.966 71.4903 188.383 70.5091 188.702 69.5279C189.021 68.5468 189.34 67.5656 189.512 66.609C189.683 65.6769 189.806 64.7693 189.88 64.0089C189.953 63.2485 190.002 62.6107 190.027 62.1692C190.051 61.7277 190.027 61.4579 190.027 61.4579C190.027 61.4579 189.831 61.605 189.487 61.8503C189.144 62.0956 188.653 62.4636 188.064 62.9296C186.912 63.8617 185.391 65.1372 183.993 66.609C183.649 66.9769 183.306 67.3694 182.987 67.7618C182.644 68.1543 182.325 68.5468 182.006 68.9638C181.908 69.0864 181.859 69.1845 181.76 69.3072C181.417 66.7807 180.951 64.2787 180.338 61.8013C181.515 61.3598 182.472 60.5748 183.208 59.5691C184.385 58.0729 184.925 56.0369 185.219 54.001C185.293 53.4859 185.366 52.9953 185.391 52.4802C185.391 51.9897 185.391 51.4745 185.391 51.0085C185.366 50.0518 185.293 49.1443 185.219 48.3839C185.146 47.6235 185.023 46.9857 184.9 46.5442C184.802 46.1027 184.729 45.8574 184.729 45.8574C184.729 45.8574 184.091 46.4951 183.232 47.5499C182.374 48.6046 181.147 50.0519 180.117 51.6708C179.602 52.4802 179.136 53.3142 178.719 54.1973C178.547 54.5161 178.425 54.835 178.277 55.1784C177.247 52.3085 176.119 49.6594 174.868 47.2065C176.143 46.6423 177.026 45.6366 177.591 44.3856C178.228 42.7912 178.326 40.7553 178.106 38.7439C177.787 36.7816 177.223 34.8193 176.658 33.4211C176.07 32.023 175.579 31.1154 175.579 31.1154C175.579 31.1154 175.138 31.8267 174.549 32.9306C174.255 33.4947 173.936 34.157 173.641 34.8683C173.347 35.6042 172.979 36.4137 172.685 37.2722C172.39 38.1307 172.121 38.9892 171.973 39.8723C171.9 40.3138 171.826 40.7553 171.802 41.1968C171.802 41.344 171.777 41.5157 171.777 41.6629C169.962 38.8175 167.975 36.1929 165.792 33.6174C166.405 33.2985 166.896 32.906 167.264 32.4154C167.73 31.8022 168 31.0909 168.122 30.2814C168.245 29.472 168.22 28.6134 168.073 27.6813C167.926 26.7738 167.705 25.8171 167.337 24.9341C166.651 23.168 165.743 21.4264 164.958 20.2C164.149 18.998 163.535 18.2131 163.535 18.2131C163.535 18.2131 163.241 18.9244 162.898 20.0283C162.554 21.1321 162.186 22.6283 161.941 24.3208C161.72 25.9888 161.72 27.7549 162.162 29.3984C162.186 29.521 162.211 29.6191 162.26 29.7418C159.709 27.0681 156.888 24.419 153.822 21.6472C156.863 19.9301 156.029 16.3489 154.337 13.0865C153.454 11.4921 152.375 10.0204 151.492 8.91658C150.707 7.73918 150.044 7.05237 150.044 7.05237C150.044 7.05237 149.186 9.82415 149.21 12.9639C149.235 14.5337 149.48 16.1772 150.143 17.7225C150.29 18.0414 150.437 18.3357 150.609 18.6301C147.812 16.1527 142.931 13.6016 142.931 13.6016C162.333 29.8399 177.125 49.4877 179.332 72.0054C180.117 80.1736 179.136 88.3418 177.86 96.4609C176.438 105.61 174.107 114.735 169.373 123.222C162.039 136.345 152.252 146.844 138.957 155.036C138.957 155.036 118.991 165.044 97.5767 165.265C97.0616 165.265 96.5465 165.265 96.0314 165.265C95.7861 165.265 95.5408 165.265 95.2955 165.265C74.1514 164.946 53.9149 155.036 53.9149 155.036C40.6202 146.844 30.8331 136.345 23.4989 123.222C18.7647 114.735 16.459 105.61 15.0118 96.4609C13.7363 88.3418 12.7551 80.1981 13.5401 72.0054C15.7477 49.4877 30.5632 29.8399 49.9412 13.6016C49.9412 13.6016 45.0599 16.1527 42.2636 18.6301C42.4353 18.3357 42.607 18.0414 42.7297 17.7225C43.3674 16.1772 43.6372 14.5337 43.6618 12.9639C43.7354 9.82415 42.8768 7.05237 42.8768 7.05237C42.8768 7.05237 42.2391 7.73918 41.356 8.81846C40.4975 9.89774 39.3937 11.3695 38.5107 12.9884C36.8182 16.2508 35.9842 19.8565 39.0258 21.5736C35.9596 24.3454 33.1388 26.9945 30.5878 29.6682C30.6123 29.5455 30.6614 29.4474 30.6859 29.3248C31.1519 27.6813 31.1519 25.9152 30.9066 24.2473C30.6614 22.5793 30.2934 21.0585 29.95 19.9547C29.6066 18.8509 29.3123 18.1395 29.3123 18.1395C29.3123 18.1395 28.699 18.9244 27.9141 20.1264C27.1292 21.3528 26.2216 23.0944 25.5348 24.8605C25.1668 25.7435 24.9461 26.6756 24.7989 27.6077C24.6517 28.5153 24.6272 29.3984 24.7498 30.2078C24.8725 31.0173 25.1423 31.7286 25.6084 32.3419C25.9763 32.8324 26.4669 33.2249 27.0801 33.5438C24.897 36.0948 22.8856 38.7439 21.095 41.5893C21.095 41.4176 21.0705 41.2704 21.0705 41.1233C21.046 40.6817 20.9724 40.2402 20.8988 39.7987C20.7271 38.9156 20.4818 38.0326 20.1874 37.1986C19.8931 36.3646 19.5252 35.5306 19.2308 34.8193C18.9119 34.0834 18.593 33.4211 18.3232 32.8815C17.7591 31.7532 17.3175 31.0663 17.3175 31.0663C17.3175 31.0663 16.827 31.9739 16.2383 33.3721C15.6741 34.7948 15.1099 36.7326 14.791 38.6949C14.5703 40.6817 14.6684 42.7422 15.3061 44.3366C15.8703 45.5876 16.7534 46.5933 18.0289 47.1574C16.7779 49.6349 15.6496 52.2595 14.6193 55.1294C14.4967 54.8105 14.3495 54.4916 14.1778 54.1482C13.7608 53.2897 13.2948 52.4312 12.7797 51.6217C11.7494 50.0028 10.5475 48.5556 9.66446 47.5008C8.80594 46.4461 8.16818 45.8083 8.16818 45.8083C8.16818 45.8083 8.11913 46.0536 7.99648 46.4951C7.89836 46.9367 7.75119 47.5744 7.6776 48.3348C7.60402 49.0952 7.53043 50.0028 7.5059 50.9594C7.48137 51.45 7.48137 51.9406 7.5059 52.4312C7.53043 52.9463 7.60402 53.4369 7.6776 53.952C7.97195 55.9879 8.53612 57.9993 9.68899 59.5201C10.4494 60.5503 11.3815 61.3107 12.5589 61.7522C11.9457 64.2297 11.4796 66.7316 11.1362 69.2581C11.0626 69.1355 10.989 69.0374 10.8909 68.9147C10.5966 68.4977 10.2532 68.1053 9.90975 67.7128C9.59087 67.3203 9.24746 66.9279 8.90406 66.5599C7.5059 65.0882 6.00963 63.7881 4.83223 62.8806C4.24353 62.4145 3.75295 62.0466 3.40954 61.8013C3.06614 61.556 2.8699 61.4088 2.8699 61.4088C2.8699 61.4088 2.84537 61.6786 2.8699 62.1202C2.89443 62.5617 2.94349 63.1994 3.01708 63.9598C3.09066 64.7202 3.21331 65.6278 3.38501 66.5599C3.53219 67.5166 3.85107 68.4977 4.16994 69.4789C4.51335 70.46 4.93035 71.4412 5.42093 72.3488C5.93604 73.2564 6.54927 74.0904 7.23608 74.7772C8.16818 75.7093 9.24747 76.3961 10.4984 76.764C10.4003 79.3886 10.4494 82.0378 10.5966 84.6624C10.3267 84.319 10.0569 83.9756 9.73805 83.6322C9.0267 82.8227 8.24177 82.0868 7.43231 81.3755C5.81339 79.9773 4.09636 78.8245 2.77179 77.9905C1.44722 77.1565 0.564169 76.6904 0.564169 76.6904C0.564169 76.6904 0.662285 77.7207 1.03022 79.1924C1.20193 79.9283 1.44722 80.8113 1.74156 81.7189C1.88874 82.185 2.06044 82.651 2.23215 83.1416C2.42838 83.6322 2.64914 84.1473 2.8699 84.6379C3.33596 85.6435 3.8756 86.6247 4.48882 87.5323C4.78317 87.9738 5.12658 88.4153 5.46999 88.8323C5.83792 89.2493 6.23039 89.6173 6.62285 89.9607C7.94742 91.1135 9.51728 91.8249 11.2588 91.8985C11.6758 95.0137 12.2155 98.1289 12.8778 101.195C12.8287 101.121 12.7551 101.023 12.7061 100.95C11.3324 99.2327 9.56634 97.6873 7.6776 96.3382C6.7455 95.6759 5.76433 95.0627 4.85676 94.5231C3.94918 93.9834 3.13972 93.5174 2.40385 93.1249C0.981163 92.4136 0 91.9721 0 91.9721C0 91.9721 0.245291 93.0513 0.784931 94.6212C1.39816 96.2156 2.25668 98.3006 3.50766 100.287C4.16994 101.293 4.88129 102.274 5.69075 103.157C6.50021 104.04 7.30967 104.825 8.29083 105.463C10.106 106.64 12.0928 107.229 14.2023 106.861C14.3005 107.254 14.3986 107.646 14.4967 108.039C15.2326 110.786 16.1156 113.509 17.1704 116.182C16.9741 115.986 16.7779 115.79 16.5571 115.569C16.1156 115.177 15.6496 114.784 15.159 114.416C14.6684 114.048 14.2023 113.68 13.6872 113.337C12.657 112.65 11.5777 112.012 10.4739 111.448C9.39464 110.859 8.24177 110.369 7.26061 109.903C6.25492 109.437 5.32281 109.044 4.51335 108.725C2.89443 108.088 1.79062 107.72 1.79062 107.72C1.79062 107.72 2.25668 108.824 3.09066 110.418C3.50766 111.227 4.12089 112.135 4.78317 113.092C5.44546 114.048 6.20586 115.054 7.03985 116.011C7.94742 116.967 8.90406 117.899 9.90975 118.709C10.4003 119.126 10.9154 119.494 11.4551 119.837C11.7249 120.009 11.9702 120.156 12.24 120.328C12.5344 120.475 12.8042 120.622 13.074 120.745C15.2326 121.726 17.4156 122.02 19.4761 121.333C20.9724 124.326 22.6894 127.269 24.7008 130.09C24.3819 129.845 24.063 129.624 23.7196 129.403C23.18 129.06 22.5913 128.741 22.0026 128.447C21.4384 128.128 20.8497 127.858 20.261 127.564C19.0591 127.024 17.7836 126.534 16.5326 126.117C15.8948 125.896 15.2816 125.7 14.6439 125.528C14.0306 125.356 13.4419 125.16 12.8778 124.988C11.7494 124.645 10.6947 124.375 9.7871 124.154C7.97195 123.713 6.77003 123.492 6.77003 123.492C6.77003 123.492 7.5059 124.571 8.75688 126.117C9.34558 126.901 10.2041 127.735 11.1117 128.643C12.0438 129.526 13.0495 130.458 14.1288 131.341C15.2816 132.2 16.5081 132.985 17.7345 133.647C18.3478 133.99 18.9855 134.285 19.5987 134.555C20.212 134.824 20.8252 135.045 21.4875 135.217C23.9894 135.879 26.2952 135.83 28.233 134.726C30.1708 137.155 32.2312 139.608 34.4143 141.987C34.3162 141.938 34.2426 141.913 34.1445 141.864C33.8256 141.742 33.5067 141.619 33.1633 141.496C32.8444 141.374 32.5256 141.251 32.2067 141.153C31.5444 140.932 30.8821 140.736 30.1953 140.564C28.8217 140.221 27.4235 139.926 26.0254 139.706C24.6027 139.509 23.3272 139.289 22.0762 139.141C20.8497 138.994 19.6969 138.872 18.7157 138.774C16.7534 138.602 15.4779 138.553 15.4779 138.553C15.4779 138.553 16.5081 139.534 18.2006 140.908C18.6176 141.251 19.0836 141.619 19.5742 141.987C20.0648 142.355 20.6535 142.723 21.2422 143.115C22.4196 143.876 23.6951 144.636 25.0197 145.347C25.3631 145.519 25.6819 145.691 26.0254 145.862C26.3688 146.01 26.7367 146.181 27.1046 146.304C27.816 146.598 28.5519 146.868 29.2632 147.089C30.6859 147.579 32.1086 147.923 33.4331 148.095C35.7143 148.34 37.7503 148.046 39.3447 147.064C41.1353 148.781 42.9995 150.449 44.9373 152.019C44.3486 151.946 43.7599 151.848 43.1467 151.798C41.6749 151.651 40.1296 151.627 38.7314 151.578C35.886 151.48 33.1388 151.602 31.1029 151.749C30.0972 151.823 29.2632 151.897 28.6745 151.946C28.1103 151.995 27.7915 152.044 27.7915 152.044C27.7915 152.044 27.865 152.093 28.0122 152.191C28.1594 152.289 28.3801 152.412 28.6745 152.583C29.2632 152.927 30.0972 153.393 31.1274 153.957C32.1576 154.497 33.3596 155.11 34.6841 155.723C36.0578 156.287 37.5295 156.851 39.0503 157.342C39.8107 157.587 40.5711 157.808 41.3315 158.029C41.724 158.127 42.0919 158.225 42.4844 158.323C42.8768 158.397 43.2693 158.47 43.6618 158.544C45.2316 158.789 46.7279 158.912 48.1261 158.887C50.0393 158.838 51.6828 158.446 53.0074 157.661C53.7432 158.078 54.4546 158.495 55.215 158.887C55.3867 158.986 55.5093 159.01 55.6074 158.986C65.6644 164.529 78.1251 167.939 88.3783 169.165C80.161 170.686 70.5211 172.378 60.2925 173.924L49.2299 183.318C49.2299 183.318 74.1024 175.028 97.3069 169.754C120.511 175.028 145.384 183.318 145.384 183.318L134.321 173.924C123.823 172.329 113.938 170.588 105.598 169.042C118.279 167.595 128.949 163.867 137.486 158.986C137.584 158.986 137.657 158.961 137.78 158.887C138.516 158.495 139.252 158.078 139.987 157.661C141.288 158.446 142.956 158.838 144.869 158.887C146.267 158.936 147.763 158.789 149.333 158.544C149.726 158.47 150.118 158.421 150.51 158.323C150.903 158.225 151.271 158.127 151.663 158.029C152.424 157.833 153.209 157.587 153.969 157.342C155.49 156.851 156.962 156.287 158.335 155.723C159.66 155.11 160.862 154.497 161.892 153.933C162.922 153.393 163.756 152.902 164.345 152.559C164.639 152.387 164.86 152.265 165.007 152.166C165.154 152.068 165.228 152.019 165.228 152.019C165.228 152.019 164.909 151.995 164.345 151.921C163.756 151.872 162.922 151.798 161.916 151.725C159.881 151.578 157.158 151.455 154.312 151.553C152.914 151.627 151.369 151.627 149.897 151.798C149.309 151.848 148.695 151.921 148.107 152.019C150.044 150.449 151.909 148.781 153.699 147.064C155.294 148.021 157.33 148.315 159.611 148.095C160.935 147.923 162.358 147.579 163.781 147.113C164.492 146.868 165.228 146.598 165.939 146.304C166.307 146.157 166.651 146.01 167.019 145.862C167.362 145.691 167.705 145.519 168.024 145.347C169.349 144.636 170.624 143.876 171.802 143.115C172.39 142.723 172.955 142.379 173.47 141.987C173.96 141.594 174.426 141.251 174.843 140.908C176.511 139.534 177.566 138.553 177.566 138.553C177.566 138.553 176.291 138.602 174.328 138.774C173.347 138.872 172.194 138.97 170.968 139.141C169.717 139.289 168.441 139.509 167.019 139.73C165.62 139.951 164.222 140.245 162.849 140.589C162.162 140.76 161.499 140.957 160.837 141.177C160.518 141.276 160.199 141.398 159.881 141.521C159.562 141.643 159.218 141.742 158.899 141.864C158.801 141.889 158.728 141.938 158.63 141.987C160.813 139.583 162.873 137.155 164.811 134.726C166.749 135.83 169.079 135.879 171.556 135.217C172.194 135.045 172.807 134.824 173.445 134.555C174.058 134.285 174.696 133.99 175.309 133.647C176.536 132.985 177.787 132.175 178.915 131.341C179.994 130.458 181.025 129.551 181.957 128.643C182.864 127.76 183.723 126.901 184.312 126.117C185.563 124.571 186.298 123.492 186.298 123.492C186.298 123.492 185.096 123.713 183.281 124.154C182.374 124.375 181.319 124.669 180.191 124.988C179.626 125.16 179.038 125.332 178.425 125.528C177.811 125.724 177.174 125.92 176.536 126.141C175.26 126.558 174.009 127.049 172.807 127.588C172.194 127.858 171.605 128.152 171.066 128.471C170.477 128.766 169.913 129.085 169.373 129.428C169.03 129.649 168.687 129.869 168.368 130.115C170.379 127.294 172.096 124.35 173.592 121.358C175.677 122.069 177.86 121.775 179.994 120.769C180.264 120.647 180.559 120.499 180.828 120.352C181.098 120.205 181.344 120.033 181.613 119.862C182.128 119.518 182.644 119.15 183.159 118.733C184.164 117.924 185.121 116.992 186.029 116.035C186.863 115.078 187.598 114.073 188.285 113.116C188.923 112.159 189.561 111.252 189.978 110.442C190.812 108.848 191.278 107.744 191.278 107.744C191.278 107.744 190.174 108.112 188.555 108.75C187.746 109.069 186.789 109.461 185.808 109.927C184.827 110.393 183.674 110.909 182.57 111.473C181.466 112.037 180.362 112.675 179.357 113.361C178.842 113.705 178.375 114.073 177.885 114.441C177.394 114.809 176.928 115.201 176.487 115.594C176.266 115.79 176.07 115.986 175.874 116.182C176.928 113.509 177.811 110.786 178.547 108.039C178.523 107.646 178.621 107.254 178.719 106.861Z" fill="#FF5D45"/>
<path d="M60 108.475H137" stroke="#FF5940" stroke-width="1.83168"/>
</svg>
