<svg width="45" height="55" viewBox="0 0 45 55" fill="none" xmlns="http://www.w3.org/2000/svg">
<path fill-rule="evenodd" clip-rule="evenodd" d="M3.06013 41.873H9.81509C11.5152 41.873 12.8979 40.6463 12.8752 39.1582V29.365H20.5595C29.6493 29.365 37.0163 22.8296 37.0163 14.7658C37.0163 6.70199 29.6493 0.166504 20.5369 0.166504H12.8752H8.65901H3.06013C1.38273 0.166504 0 1.39316 0 2.88124V39.1582C0 40.6463 1.36006 41.873 3.06013 41.873Z" fill="url(#paint0_linear_3_2312)" fill-opacity="0.8"/>
<path fill-rule="evenodd" clip-rule="evenodd" d="M10.1636 49.8085H16.9186C18.6187 49.8085 20.0014 48.5819 19.9787 47.0938V37.3007H27.6631C36.7528 37.3007 44.1198 30.7652 44.1198 22.7014C44.1198 14.6376 36.7528 8.10211 27.6404 8.10211H19.9787V8.10205H10.1636C8.48624 8.10205 7.10352 9.32871 7.10352 10.8168V47.0938C7.10352 48.5819 8.46358 49.8085 10.1636 49.8085Z" fill="url(#paint1_linear_3_2312)" fill-opacity="0.74"/>
<path d="M7.10205 53.3037L8.78565 53.2979C10.9894 53.2903 12.7718 51.5017 12.7718 49.2979V38.8116H19.9719C25.6658 38.7221 37.0185 35.2157 36.8777 21.9058C36.7369 8.59597 25.5485 5.0895 19.9719 5" stroke="white" stroke-width="2"/>
<defs>
<linearGradient id="paint0_linear_3_2312" x1="7.26888" y1="1.79594" x2="19.3001" y2="45.0989" gradientUnits="userSpaceOnUse">
<stop stop-color="#7D7AFF"/>
<stop offset="1" stop-color="#3CBBFF"/>
</linearGradient>
<linearGradient id="paint1_linear_3_2312" x1="14.3724" y1="9.73149" x2="26.4036" y2="53.0345" gradientUnits="userSpaceOnUse">
<stop stop-color="#FF60CF"/>
<stop offset="1" stop-color="#FFBA64"/>
</linearGradient>
</defs>
</svg>
