<svg width="353" height="148" viewBox="0 0 353 148" fill="none" xmlns="http://www.w3.org/2000/svg">
<rect y="0.326172" width="348" height="147" rx="15" fill="#FFC173"/>
<mask id="mask0_3_1430" style="mask-type:alpha" maskUnits="userSpaceOnUse" x="-1" y="0" width="350" height="148">
<rect x="-0.115234" y="0.0585938" width="348.23" height="147.54" rx="15" fill="#4CC1FF"/>
</mask>
<g mask="url(#mask0_3_1430)">
<path d="M301.277 95.0019C300.199 94.9875 299.167 94.5758 298.381 93.8478L269.934 65.7465C269.286 64.9665 268.955 63.9763 269.005 62.9685C269.055 61.9606 269.483 61.0072 270.205 60.2937C270.927 59.5802 271.893 59.1576 272.913 59.1081C273.933 59.0586 274.935 59.3858 275.725 60.0259L301.277 85.3171L355.275 31.9247C356.065 31.2845 357.067 30.9574 358.087 31.0069C359.107 31.0563 360.073 31.479 360.795 32.1925C361.517 32.906 361.945 33.8594 361.995 34.8672C362.045 35.8751 361.714 36.8653 361.066 37.6453L304.172 93.8478C303.386 94.5758 302.354 94.9875 301.277 95.0019Z" fill="#FFD6A3"/>
<path d="M302.277 67C301.199 66.9855 300.167 66.5739 299.381 65.8458L270.934 37.7446C270.286 36.9646 269.955 35.9744 270.005 34.9665C270.055 33.9587 270.483 33.0053 271.205 32.2918C271.927 31.5783 272.893 31.1557 273.913 31.1062C274.933 31.0567 275.935 31.3838 276.725 32.024L302.277 57.3151L356.275 3.92271C357.065 3.28255 358.067 2.9554 359.087 3.0049C360.107 3.0544 361.073 3.477 361.795 4.19051C362.517 4.90402 362.945 5.85742 362.995 6.86526C363.045 7.8731 362.714 8.86332 362.066 9.64332L305.172 65.8458C304.386 66.5739 303.354 66.9855 302.277 67Z" fill="#FFD6A3"/>
<path d="M304.277 121.002C303.199 120.987 302.167 120.569 301.381 119.83L272.934 91.2894C272.286 90.4972 271.955 89.4915 272.005 88.468C272.055 87.4444 272.483 86.4761 273.205 85.7514C273.927 85.0268 274.893 84.5975 275.913 84.5473C276.933 84.497 277.935 84.8293 278.725 85.4794L304.277 111.166L358.275 56.9391C359.065 56.2889 360.067 55.9567 361.087 56.0069C362.107 56.0572 363.073 56.4864 363.795 57.2111C364.517 57.9357 364.945 58.904 364.995 59.9276C365.045 60.9512 364.714 61.9569 364.066 62.7491L307.172 119.83C306.386 120.569 305.354 120.987 304.277 121.002Z" fill="#FFD6A3"/>
<path d="M38.7 56V91H47.15V56H38.7ZM44 62.95H50.85C52.55 62.95 53.8833 63.3333 54.85 64.1C55.8167 64.8667 56.3 65.9833 56.3 67.45C56.3 68.8833 55.8167 69.9833 54.85 70.75C53.8833 71.5167 52.55 71.9 50.85 71.9H44V78.85H50.85C53.8167 78.85 56.3 78.4 58.3 77.5C60.3333 76.5667 61.8667 75.25 62.9 73.55C63.9333 71.8167 64.45 69.7833 64.45 67.45C64.45 65.05 63.9333 63 62.9 61.3C61.8667 59.6 60.3333 58.3 58.3 57.4C56.3 56.4667 53.8167 56 50.85 56H44V62.95ZM75.5758 68H68.1258V91H75.5758V68ZM82.2258 75.8L85.4758 69.35C85.0758 68.75 84.4924 68.2833 83.7258 67.95C82.9591 67.6167 82.1591 67.45 81.3258 67.45C80.0591 67.45 78.8424 67.8667 77.6758 68.7C76.5091 69.5333 75.5591 70.6667 74.8258 72.1C74.1258 73.5333 73.7758 75.1667 73.7758 77L75.5758 79.65C75.5758 78.55 75.7258 77.6167 76.0258 76.85C76.3258 76.0833 76.7591 75.5 77.3258 75.1C77.8924 74.7 78.5424 74.5 79.2758 74.5C79.9424 74.5 80.4924 74.6167 80.9258 74.85C81.3924 75.0833 81.8258 75.4 82.2258 75.8ZM99.65 91.5C102.583 91.5 105.067 90.9333 107.1 89.8C109.167 88.6667 110.8 86.9667 112 84.7L105.25 83.05C104.683 84.05 103.917 84.8 102.95 85.3C102.017 85.8 100.883 86.05 99.55 86.05C98.3833 86.05 97.4 85.8 96.6 85.3C95.8 84.7667 95.2 84 94.8 83C94.4 82 94.2 80.8 94.2 79.4C94.2333 77.8667 94.4333 76.6 94.8 75.6C95.2 74.5667 95.7833 73.8 96.55 73.3C97.3167 72.8 98.2667 72.55 99.4 72.55C100.3 72.55 101.083 72.75 101.75 73.15C102.417 73.55 102.933 74.1167 103.3 74.85C103.667 75.5833 103.85 76.45 103.85 77.45C103.85 77.6833 103.783 77.9833 103.65 78.35C103.55 78.6833 103.417 78.9667 103.25 79.2L105.05 76.9H90.85V81.1H111.85C111.917 80.8667 111.95 80.5833 111.95 80.25C111.95 79.8833 111.95 79.5167 111.95 79.15C111.95 76.6833 111.467 74.5833 110.5 72.85C109.533 71.1167 108.133 69.8 106.3 68.9C104.467 67.9667 102.217 67.5 99.55 67.5C96.8833 67.5 94.5667 67.9833 92.6 68.95C90.6667 69.9167 89.1833 71.3 88.15 73.1C87.1167 74.9 86.6 77.0333 86.6 79.5C86.6 81.9333 87.1333 84.05 88.2 85.85C89.2667 87.65 90.7667 89.05 92.7 90.05C94.6667 91.0167 96.9833 91.5 99.65 91.5ZM151.712 76.2C151.712 74.3333 151.479 72.75 151.012 71.45C150.545 70.15 149.779 69.1667 148.712 68.5C147.679 67.8 146.262 67.45 144.462 67.45C142.895 67.45 141.495 67.7833 140.262 68.45C139.029 69.1167 137.995 70.05 137.162 71.25C136.695 70.0167 135.929 69.0833 134.862 68.45C133.795 67.7833 132.362 67.45 130.562 67.45C128.995 67.45 127.645 67.8 126.512 68.5C125.412 69.2 124.545 70.1667 123.912 71.4V68H116.612V91H123.912V77C123.912 76.0667 124.045 75.2833 124.312 74.65C124.612 74.0167 125.012 73.55 125.512 73.25C126.045 72.9167 126.645 72.75 127.312 72.75C128.345 72.75 129.079 73.1167 129.512 73.85C129.979 74.55 130.212 75.6 130.212 77V91H137.812V77C137.812 76.0667 137.945 75.2833 138.212 74.65C138.512 74.0167 138.912 73.55 139.412 73.25C139.945 72.9167 140.545 72.75 141.212 72.75C142.245 72.75 142.979 73.1167 143.412 73.85C143.879 74.55 144.112 75.6 144.112 77V91H151.712V76.2ZM157.178 59.35C157.178 60.55 157.611 61.5333 158.478 62.3C159.344 63.0667 160.378 63.45 161.578 63.45C162.811 63.45 163.844 63.0667 164.678 62.3C165.544 61.5333 165.978 60.55 165.978 59.35C165.978 58.15 165.544 57.1833 164.678 56.45C163.844 55.6833 162.811 55.3 161.578 55.3C160.378 55.3 159.344 55.6833 158.478 56.45C157.611 57.1833 157.178 58.15 157.178 59.35ZM157.928 68V91H165.228V68H157.928ZM179.346 82V68H171.446V82.8C171.446 85.5333 172.096 87.6833 173.396 89.25C174.729 90.7833 176.829 91.55 179.696 91.55C181.396 91.55 182.813 91.2 183.946 90.5C185.079 89.7667 185.996 88.7833 186.696 87.55V91H194.246V68H186.696V82C186.696 82.9 186.529 83.6667 186.196 84.3C185.863 84.9333 185.396 85.4167 184.796 85.75C184.229 86.0833 183.529 86.25 182.696 86.25C181.463 86.25 180.596 85.8833 180.096 85.15C179.596 84.3833 179.346 83.3333 179.346 82ZM235.306 76.2C235.306 74.3333 235.073 72.75 234.606 71.45C234.139 70.15 233.373 69.1667 232.306 68.5C231.273 67.8 229.856 67.45 228.056 67.45C226.489 67.45 225.089 67.7833 223.856 68.45C222.623 69.1167 221.589 70.05 220.756 71.25C220.289 70.0167 219.523 69.0833 218.456 68.45C217.389 67.7833 215.956 67.45 214.156 67.45C212.589 67.45 211.239 67.8 210.106 68.5C209.006 69.2 208.139 70.1667 207.506 71.4V68H200.206V91H207.506V77C207.506 76.0667 207.639 75.2833 207.906 74.65C208.206 74.0167 208.606 73.55 209.106 73.25C209.639 72.9167 210.239 72.75 210.906 72.75C211.939 72.75 212.673 73.1167 213.106 73.85C213.573 74.55 213.806 75.6 213.806 77V91H221.406V77C221.406 76.0667 221.539 75.2833 221.806 74.65C222.106 74.0167 222.506 73.55 223.006 73.25C223.539 72.9167 224.139 72.75 224.806 72.75C225.839 72.75 226.573 73.1167 227.006 73.85C227.473 74.55 227.706 75.6 227.706 77V91H235.306V76.2Z" fill="#3D3269"/>
</g>
</svg>
