<svg width="349" height="148" viewBox="0 0 349 148" fill="none" xmlns="http://www.w3.org/2000/svg">
<rect y="0.326172" width="348" height="147" rx="15" fill="#7D5FFF"/>
<mask id="mask0_3_1410" style="mask-type:alpha" maskUnits="userSpaceOnUse" x="-1" y="0" width="350" height="148">
<rect x="-0.115234" y="0.0585938" width="348.23" height="147.54" rx="15" fill="#4CC1FF"/>
</mask>
<g mask="url(#mask0_3_1410)">
<path d="M42.55 78.7L36.65 82.95C37.45 84.6167 38.5667 86.15 40 87.55C41.4333 88.95 43.1167 90.0667 45.05 90.9C47.0167 91.7 49.1333 92.1 51.4 92.1C53.0333 92.1 54.6167 91.85 56.15 91.35C57.7167 90.8833 59.1 90.1833 60.3 89.25C61.5333 88.3167 62.5 87.1667 63.2 85.8C63.9333 84.4 64.3 82.8167 64.3 81.05C64.3 79.5833 64.0667 78.2833 63.6 77.15C63.1333 76.0167 62.4833 75.0167 61.65 74.15C60.85 73.2833 59.9167 72.55 58.85 71.95C57.7833 71.3167 56.6333 70.7667 55.4 70.3C53.7667 69.7333 52.3667 69.2 51.2 68.7C50.0667 68.2 49.1833 67.65 48.55 67.05C47.95 66.45 47.65 65.75 47.65 64.95C47.65 64.1833 47.9667 63.55 48.6 63.05C49.2333 62.5167 50.15 62.25 51.35 62.25C52.25 62.25 53.0833 62.4333 53.85 62.8C54.65 63.1333 55.3667 63.6167 56 64.25C56.6667 64.85 57.25 65.5667 57.75 66.4L64.2 62.8C63.6 61.6 62.7333 60.4167 61.6 59.25C60.4667 58.0833 59.0333 57.1167 57.3 56.35C55.6 55.5833 53.5833 55.2 51.25 55.2C48.9833 55.2 46.9167 55.6 45.05 56.4C43.2167 57.1667 41.75 58.3 40.65 59.8C39.5833 61.3 39.05 63.0833 39.05 65.15C39.05 66.8833 39.3667 68.3667 40 69.6C40.6333 70.8 41.4333 71.8333 42.4 72.7C43.3667 73.5333 44.3833 74.2167 45.45 74.75C46.55 75.2833 47.5167 75.7 48.35 76C50.05 76.6333 51.4167 77.2 52.45 77.7C53.4833 78.2 54.2333 78.7333 54.7 79.3C55.1667 79.8333 55.4 80.55 55.4 81.45C55.4 82.5167 55 83.3667 54.2 84C53.4 84.6 52.3833 84.9 51.15 84.9C49.9833 84.9 48.8667 84.65 47.8 84.15C46.7667 83.65 45.8 82.9333 44.9 82C44.0333 81.0667 43.25 79.9667 42.55 78.7ZM66.5 68V74.25H81.9V68H66.5ZM70.55 60V91H77.8V60H70.55ZM90.968 83.8C90.968 83.2333 91.1013 82.7667 91.368 82.4C91.6346 82 92.0346 81.7 92.568 81.5C93.1013 81.3 93.818 81.2 94.718 81.2C95.8846 81.2 96.9846 81.3667 98.018 81.7C99.0846 82 100.018 82.45 100.818 83.05V79.7C100.418 79.2667 99.818 78.85 99.018 78.45C98.218 78.05 97.2513 77.7167 96.118 77.45C95.018 77.1833 93.768 77.05 92.368 77.05C89.5013 77.05 87.2846 77.7 85.718 79C84.1513 80.2667 83.368 82 83.368 84.2C83.368 85.7667 83.7346 87.1 84.468 88.2C85.2346 89.3 86.2346 90.1333 87.468 90.7C88.7346 91.2333 90.1013 91.5 91.568 91.5C93.0346 91.5 94.4013 91.25 95.668 90.75C96.9346 90.2167 97.968 89.45 98.768 88.45C99.568 87.4167 99.968 86.1667 99.968 84.7L99.168 81.7C99.168 82.7667 98.9346 83.6667 98.468 84.4C98.0013 85.1333 97.4013 85.6833 96.668 86.05C95.9346 86.4167 95.1346 86.6 94.268 86.6C93.668 86.6 93.118 86.5 92.618 86.3C92.118 86.0667 91.718 85.75 91.418 85.35C91.118 84.9167 90.968 84.4 90.968 83.8ZM87.618 75.05C87.9513 74.85 88.4846 74.6 89.218 74.3C89.9513 73.9667 90.8013 73.6833 91.768 73.45C92.768 73.2167 93.7846 73.1 94.818 73.1C95.518 73.1 96.1346 73.1667 96.668 73.3C97.2346 73.4333 97.7013 73.65 98.068 73.95C98.4346 74.25 98.7013 74.6167 98.868 75.05C99.068 75.45 99.168 75.9333 99.168 76.5V91H106.418V74.8C106.418 73.2 105.951 71.85 105.018 70.75C104.085 69.65 102.818 68.8167 101.218 68.25C99.618 67.65 97.8013 67.35 95.768 67.35C93.6013 67.35 91.6013 67.6333 89.768 68.2C87.9346 68.7667 86.368 69.3667 85.068 70L87.618 75.05ZM127.021 77V91H134.871V76.2C134.871 73.4333 134.221 71.2833 132.921 69.75C131.621 68.2167 129.538 67.45 126.671 67.45C124.971 67.45 123.538 67.8 122.371 68.5C121.238 69.2 120.338 70.1833 119.671 71.45V68H112.071V91H119.671V77C119.671 76.1 119.838 75.3333 120.171 74.7C120.504 74.0667 120.971 73.5833 121.571 73.25C122.171 72.9167 122.871 72.75 123.671 72.75C124.871 72.75 125.721 73.1167 126.221 73.85C126.754 74.5833 127.021 75.6333 127.021 77ZM158.281 52V91H165.831V52H158.281ZM139.481 79.5C139.481 82.0667 139.998 84.25 141.031 86.05C142.098 87.8167 143.464 89.1667 145.131 90.1C146.798 91.0333 148.564 91.5 150.431 91.5C152.364 91.5 154.064 91.0167 155.531 90.05C157.031 89.0833 158.214 87.7 159.081 85.9C159.948 84.1 160.381 81.9667 160.381 79.5C160.381 77 159.948 74.8667 159.081 73.1C158.214 71.3 157.031 69.9167 155.531 68.95C154.064 67.9833 152.364 67.5 150.431 67.5C148.564 67.5 146.798 67.9667 145.131 68.9C143.464 69.8333 142.098 71.1833 141.031 72.95C139.998 74.7167 139.481 76.9 139.481 79.5ZM147.431 79.5C147.431 78.3 147.681 77.2667 148.181 76.4C148.681 75.5 149.348 74.8167 150.181 74.35C151.014 73.85 151.931 73.6 152.931 73.6C153.798 73.6 154.631 73.8333 155.431 74.3C156.264 74.7667 156.948 75.45 157.481 76.35C158.014 77.2167 158.281 78.2667 158.281 79.5C158.281 80.7333 158.014 81.8 157.481 82.7C156.948 83.5667 156.264 84.2333 155.431 84.7C154.631 85.1667 153.798 85.4 152.931 85.4C151.931 85.4 151.014 85.1667 150.181 84.7C149.348 84.2 148.681 83.5167 148.181 82.65C147.681 81.75 147.431 80.7 147.431 79.5ZM177.54 83.8C177.54 83.2333 177.674 82.7667 177.94 82.4C178.207 82 178.607 81.7 179.14 81.5C179.674 81.3 180.39 81.2 181.29 81.2C182.457 81.2 183.557 81.3667 184.59 81.7C185.657 82 186.59 82.45 187.39 83.05V79.7C186.99 79.2667 186.39 78.85 185.59 78.45C184.79 78.05 183.824 77.7167 182.69 77.45C181.59 77.1833 180.34 77.05 178.94 77.05C176.074 77.05 173.857 77.7 172.29 79C170.724 80.2667 169.94 82 169.94 84.2C169.94 85.7667 170.307 87.1 171.04 88.2C171.807 89.3 172.807 90.1333 174.04 90.7C175.307 91.2333 176.674 91.5 178.14 91.5C179.607 91.5 180.974 91.25 182.24 90.75C183.507 90.2167 184.54 89.45 185.34 88.45C186.14 87.4167 186.54 86.1667 186.54 84.7L185.74 81.7C185.74 82.7667 185.507 83.6667 185.04 84.4C184.574 85.1333 183.974 85.6833 183.24 86.05C182.507 86.4167 181.707 86.6 180.84 86.6C180.24 86.6 179.69 86.5 179.19 86.3C178.69 86.0667 178.29 85.75 177.99 85.35C177.69 84.9167 177.54 84.4 177.54 83.8ZM174.19 75.05C174.524 74.85 175.057 74.6 175.79 74.3C176.524 73.9667 177.374 73.6833 178.34 73.45C179.34 73.2167 180.357 73.1 181.39 73.1C182.09 73.1 182.707 73.1667 183.24 73.3C183.807 73.4333 184.274 73.65 184.64 73.95C185.007 74.25 185.274 74.6167 185.44 75.05C185.64 75.45 185.74 75.9333 185.74 76.5V91H192.99V74.8C192.99 73.2 192.524 71.85 191.59 70.75C190.657 69.65 189.39 68.8167 187.79 68.25C186.19 67.65 184.374 67.35 182.34 67.35C180.174 67.35 178.174 67.6333 176.34 68.2C174.507 68.7667 172.94 69.3667 171.64 70L174.19 75.05ZM206.093 68H198.643V91H206.093V68ZM212.743 75.8L215.993 69.35C215.593 68.75 215.01 68.2833 214.243 67.95C213.477 67.6167 212.677 67.45 211.843 67.45C210.577 67.45 209.36 67.8667 208.193 68.7C207.027 69.5333 206.077 70.6667 205.343 72.1C204.643 73.5333 204.293 75.1667 204.293 77L206.093 79.65C206.093 78.55 206.243 77.6167 206.543 76.85C206.843 76.0833 207.277 75.5 207.843 75.1C208.41 74.7 209.06 74.5 209.793 74.5C210.46 74.5 211.01 74.6167 211.443 74.85C211.91 75.0833 212.343 75.4 212.743 75.8ZM236.65 52V91H244.2V52H236.65ZM217.85 79.5C217.85 82.0667 218.367 84.25 219.4 86.05C220.467 87.8167 221.833 89.1667 223.5 90.1C225.167 91.0333 226.933 91.5 228.8 91.5C230.733 91.5 232.433 91.0167 233.9 90.05C235.4 89.0833 236.583 87.7 237.45 85.9C238.317 84.1 238.75 81.9667 238.75 79.5C238.75 77 238.317 74.8667 237.45 73.1C236.583 71.3 235.4 69.9167 233.9 68.95C232.433 67.9833 230.733 67.5 228.8 67.5C226.933 67.5 225.167 67.9667 223.5 68.9C221.833 69.8333 220.467 71.1833 219.4 72.95C218.367 74.7167 217.85 76.9 217.85 79.5ZM225.8 79.5C225.8 78.3 226.05 77.2667 226.55 76.4C227.05 75.5 227.717 74.8167 228.55 74.35C229.383 73.85 230.3 73.6 231.3 73.6C232.167 73.6 233 73.8333 233.8 74.3C234.633 74.7667 235.317 75.45 235.85 76.35C236.383 77.2167 236.65 78.2667 236.65 79.5C236.65 80.7333 236.383 81.8 235.85 82.7C235.317 83.5667 234.633 84.2333 233.8 84.7C233 85.1667 232.167 85.4 231.3 85.4C230.3 85.4 229.383 85.1667 228.55 84.7C227.717 84.2 227.05 83.5167 226.55 82.65C226.05 81.75 225.8 80.7 225.8 79.5Z" fill="white"/>
<path d="M302.277 84.0019C301.199 83.9875 300.167 83.5758 299.381 82.8478L270.934 54.7465C270.286 53.9665 269.955 52.9763 270.005 51.9685C270.055 50.9606 270.483 50.0072 271.205 49.2937C271.927 48.5802 272.893 48.1576 273.913 48.1081C274.933 48.0586 275.935 48.3858 276.725 49.0259L302.277 74.3171L356.275 20.9247C357.065 20.2845 358.067 19.9574 359.087 20.0069C360.107 20.0563 361.073 20.479 361.795 21.1925C362.517 21.906 362.945 22.8594 362.995 23.8672C363.045 24.8751 362.714 25.8653 362.066 26.6453L305.172 82.8478C304.386 83.5758 303.354 83.9875 302.277 84.0019Z" fill="#6A4AF9"/>
<path d="M305.277 111C304.199 110.985 303.167 110.567 302.381 109.828L273.934 81.2875C273.286 80.4953 272.955 79.4896 273.005 78.466C273.055 77.4424 273.483 76.4741 274.205 75.7495C274.927 75.0248 275.893 74.5956 276.913 74.5453C277.933 74.495 278.935 74.8273 279.725 75.4775L305.277 101.164L359.275 46.9371C360.065 46.287 361.067 45.9547 362.087 46.005C363.107 46.0552 364.073 46.4845 364.795 47.2091C365.517 47.9338 365.945 48.9021 365.995 49.9257C366.045 50.9492 365.714 51.9549 365.066 52.7471L308.172 109.828C307.386 110.567 306.354 110.985 305.277 111Z" fill="#6A4AF9"/>
</g>
</svg>
